<svg version="1.1" xmlns="http://www.w3.org/2000/svg" viewBox="0 0 1105.4986572265625 653.1626362125842" width="3316.4959716796875" height="1959.4879086377525">
  <!-- svg-source:excalidraw -->
  
  <defs>
    <style>
      @font-face {
        font-family: "Virgil";
        src: url("https://excalidraw.com/Virgil.woff2");
      }
      @font-face {
        font-family: "Cascadia";
        src: url("https://excalidraw.com/Cascadia.woff2");
      }
    </style>
  </defs>
  <rect x="0" y="0" width="1105.4986572265625" height="653.1626362125842" fill="#ffffff"></rect><g transform="translate(10 345.68372385906855) rotate(0 121.16671752929688 115.25823974609375)"><path d="M55.70126191712916 0.3686098959296942 M55.72731219790876 1.8417134080082178 C104.52260769600844 0.9736461287554903, 149.55995908705245 0.7600142007884187, 185.3172197844833 1.5178952608257532 M57.09134479332715 -0.9408731507137418 C84.20307126739635 -0.7831513297985566, 111.57757411628245 -1.1623807263802064, 183.9469480412081 -0.8694243775680661 M184.70431518554688 0 C221.41701128023365 -0.9437412712723017, 242.99852947331965 19.982199858253203, 242.36517588235438 57.790423622354865 M185.72520897723734 -0.43578130938112736 C225.0751716477486 -0.6846409576945007, 240.4297661873512 21.409622875073307, 242.79391215173527 58.11888290764764 M244.2024514582008 56.91974530555308 C243.56100221873342 96.5750430514966, 242.55377175808965 136.93063719941767, 242.10684650205076 171.23114673234522 M241.99240793753415 57.90895920526236 C242.7055917456084 96.84014226858179, 242.5208977832728 137.51710913774838, 242.81854455638677 173.60792758595198 M242.33343505859375 172.88735961914062 C241.55012486316264 212.14032921257117, 223.72204502361515 231.85656498931348, 185.77696708776057 232.49645124934614 M241.60046682693064 171.77784900926054 C241.24818406132982 209.95588394027823, 223.9643061710211 229.44441142203286, 183.33966823546217 229.64355195285754 M184.75390755198896 232.38960001803935 C146.86558301985633 228.26651254226294, 105.48420695879304 228.31079229642478, 58.316295912489295 229.1910794172436 M185.03393204975873 231.45213186275214 C137.20883354975967 229.07083886895066, 87.59023701051501 229.2906199398983, 58.30923973489553 230.5823307884857 M57.629119873046875 230.5164794921875 C19.83836692509552 228.57785682938993, 0.7454440984874964 210.6388509577761, 1.4158472213894129 173.24858330748975 M56.37059924937785 232.4674543645233 C17.53071300017958 231.21524721207098, -1.583393504936248 212.91889609020822, -0.5657281008549033 174.82620325209572 M-1.69748211838305 173.72802315093577 C-0.1475136437609018 134.17244821330866, 0.23761276815392363 99.02493334953411, 1.9074210431426764 58.75029341317713 M0.9827017979696393 172.88584941159934 C-0.5454447952325353 136.6963029124121, 1.1552868100588314 101.16623650813456, 0.26589636970311403 56.71278181206435 M0 57.629119873046875 C-1.1880908217281103 20.877650986736022, 20.55202341017624 -1.026431331411004, 56.520036498084664 -0.5635928008705378 M1.1332014594227076 58.39676766656339 C1.429712403099984 19.057116663673273, 18.139714848281198 -0.7730225670151412, 56.624756834190336 -2.2082486438564954" stroke="#000000" stroke-width="1" fill="none"></path></g><g transform="translate(28.8974609375 447.4635700504748) rotate(0 103 12.5)"><text x="0" y="18" font-family="Virgil, Segoe UI Emoji" font-size="20px" fill="#000000" text-anchor="start" style="white-space: pre;" direction="ltr">SAP Commerce Cloud</text></g><g transform="translate(658.3772277832031 303.8568805973498) rotate(0 208.40267944335938 147.3556518554688)"><path d="M72.09085282124582 -0.7788233105093241 M72.36539547095927 -0.28757436456852836 C172.75076547226323 2.2033459169449428, 274.7428143120197 0.30376442842775586, 343.1447445295131 -0.4484210211948057 M73.5368537646883 0.5524689651285732 C130.82553082645168 1.0154474009326229, 187.72203819952344 1.1677916930856667, 342.72997368663476 0.7314318727811338 M343.12753295898426 0 C392.82758603927977 1.7053338345140219, 414.9748847130685 25.74043904306989, 416.83066209591914 75.08903724513951 M343.08212842978526 0.27797103486955166 C390.12285628321877 2.2952790145762263, 416.6186714957467 24.372225703268015, 419.03615670306596 75.11921882973986 M415.04163438640524 72.932471299544 C418.7981374244906 121.60473088661628, 416.6585345845439 169.70987659734578, 418.35897088609624 219.43829973973342 M416.78159473557014 74.55848583858463 C417.43168793517714 111.08458886568653, 417.7114994068778 149.88678728310822, 417.1001246096565 221.66968971770265 M416.80535888671864 221.0334777832032 C414.8547142986207 270.58711632651597, 390.37530271646864 294.24836212955427, 344.30011340416957 296.34197325073194 M418.1522839311509 222.45229757390925 C415.8702136020175 269.55399059302493, 393.9630213707995 294.815525332559, 342.955167705845 295.86816942440356 M343.0789139746773 294.1962753618914 C278.7668057679905 292.90544204224034, 216.07765039741417 293.60609237731876, 72.1859572116891 293.6324976860449 M343.77735994448517 295.4690184685537 C262.44590413505597 295.07411363596117, 182.6486413126541 295.7382601967403, 72.99549516129046 294.9624661487556 M73.6778259277344 294.7113037109376 C24.30888265805941 296.007638340816, -0.6310811396688223 271.2343354479721, -0.2687882538884878 222.35567433200785 M73.72125687636438 295.16662502847623 C26.28674625956144 292.6615464453587, 2.1670332382433113 271.0134716445892, -1.362383257318288 219.03126377211893 M-0.4565600696951151 222.42235353030273 C-2.1513072299610627 186.16159556017942, -1.846001927817966 147.5043780105883, -0.4685616437345743 71.7387212160975 M-0.05738367419689894 221.0661406246946 C1.8310206742353476 166.02068284886755, 0.9109000475473441 111.79294643992283, -0.9441188452765346 74.11704558413479 M0 73.6778259277344 C-0.04674563370645046 24.100790665174536, 25.047021393353752 -0.008773976936936378, 72.82189413346353 -0.6836412493139505 M0.47135927714407444 74.6614929493517 C1.9356419186107816 24.73032857027527, 24.47123851083841 0.7757041250355541, 72.05724648935723 0.609930095542222" stroke="#000000" stroke-width="1" fill="none"></path></g><g transform="translate(733.93017578125 618.1626362125842) rotate(0 117 12.5)"><text x="0" y="18" font-family="Virgil, Segoe UI Emoji" font-size="20px" fill="#000000" text-anchor="start" style="white-space: pre;" direction="ltr">SAP BTP, Kyma Runtime</text></g><g><g transform="translate(256.26587702819756 457.4732849889833) rotate(0 199.84709774485606 0.11835311171557805)"><path d="M0.5984824206680059 0.5449280653148889 C67.32403190876296 0.31629921524934157, 333.7743775275971 -0.36220876876452623, 400.24064852753287 -0.6227395505927689 M-0.5464530378207564 -0.21458864573389302 C66.05041296786568 -0.31359683764018437, 332.9344284864019 0.8176236970703895, 399.4094894917831 0.8594457740239614" stroke="#000000" stroke-width="1" fill="none"></path></g><g transform="translate(256.26587702819756 457.4732849889833) rotate(0 199.84709774485606 0.11835311171557805)"><path d="M372.1002396044586 11.417503700244911 C379.15342599424696 6.908738430121817, 386.6945821908833 3.940386623310612, 398.01376257819686 -0.2743999482788331 M370.85797358185835 11.994326764370985 C379.5600873194377 7.666932686500718, 387.75912343884016 5.3498852707935285, 398.7236481819451 0.6135785840727204" stroke="#000000" stroke-width="1" fill="none"></path></g><g transform="translate(256.26587702819756 457.4732849889833) rotate(0 199.84709774485606 0.11835311171557805)"><path d="M372.15380106298363 -9.10363500003194 C379.31951366099133 -7.648430985314187, 386.84510422112515 -4.653080637212485, 398.01376257819686 -0.2743999482788331 M370.9115350403834 -8.526811935905865 C379.467862675402 -6.5607543827807415, 387.65047380204066 -2.5848522795740863, 398.7236481819451 0.6135785840727204" stroke="#000000" stroke-width="1" fill="none"></path></g></g><g><g transform="translate(498.3096085144592 553.8420427798383) rotate(0 -51.59124067990933 -61.26136230043147)" fill-rule="evenodd"><path d="M-42.704796067713275 -58.502444589801094 L-26.838371103889685 -52.60246328800554 L-46.22714786128164 -56.75161689478434 L-37.377379199349804 -45.72232987286516 L-48.12406406766169 -54.11970846233533 L-51.59515378056064 -41.24905829163406 L-53.66749509563245 -56.88099960861371 L-63.96207539546289 -47.18595220448442 L-60.839267869395314 -56.424650489869485 L-76.85477459199723 -52.80802826374406 L-62.7238327977293 -59.254701102443 L-79.56721949018538 -62.83923904147999 L-61.8479920146101 -65.11845433342225 L-75.05072486169632 -71.93626860583701 L-60.37727286378771 -65.22858001923795 L-66.18503062236108 -79.34955102495994 L-54.11592789878644 -68.5198810469781 L-53.50722333965793 -79.58428887091577 L-50.31056139832728 -67.87139741298304 L-36.47172715314619 -76.88424879603232 L-45.31040112570882 -66.23478927350278 L-26.43921620238517 -71.40898446048179 L-42.17455135965206 -62.634336944696976 L-23.665527054853143 -61.056613604697155 L-40.33226465368129 -58.03855785197761" stroke="none" stroke-width="0" fill="#82c91e" fill-rule="evenodd"></path><path d="M-42.42166992485467 -58.22566845217812 C-37.37451126911403 -55.87026033412921, -31.527838575661487 -54.859879379582, -26.462610343084375 -51.469136654691354 M-42.091457288925334 -59.831889148065756 C-38.83755641975386 -57.847043550859915, -34.816983218311485 -56.50855154178055, -28.123739535883104 -52.18434209062102 M-29.05618424070359 -52.67883876175452 C-31.68706342982164 -53.99040719973151, -37.84339700682968 -55.42512220987264, -43.108777365485444 -57.13105930846844 M-27.479666437775958 -51.52409728812261 C-32.92332080642651 -53.911417784861975, -37.56925593632759 -55.25120552565077, -44.948076736196015 -57.23889315427716 M-44.17681108028775 -56.81971530047929 C-42.055252074055986 -53.38114730581412, -42.78337623729937 -51.69061483542164, -37.19685038082654 -44.5019451456764 M-44.18014025214817 -56.40082351195674 C-42.2324141305019 -52.90639783603661, -40.389210415588614 -49.855440378466454, -38.19865067425468 -45.37637795215215 M-39.0057795210826 -46.56112871069978 C-42.65652853262602 -49.29820570570181, -46.189254451727926 -52.88726372679586, -49.573362039060804 -54.483392784744815 M-38.00556762940678 -45.34865565945501 C-40.585871085477834 -47.125126152527784, -43.481722489246415 -50.133195429041116, -48.52288725085603 -54.29637750442561 M-50.24004383490121 -55.66827965858112 C-49.00552062648106 -50.73985520058196, -49.89628548265962 -46.22262060116722, -51.556131273958975 -42.483113449880975 M-49.49901586208347 -54.40338510071941 C-50.04132584075772 -51.90283577178335, -50.808207936434286 -47.65674641617672, -51.979729588046766 -43.39365063516171 M-52.4915129188702 -42.47927376512535 C-52.79183571980831 -45.45151687276012, -52.542487355720425 -49.123339726101605, -53.68185463483996 -54.915896132896435 M-51.7445298521349 -43.12889622159684 C-52.87144342582075 -47.36387978832303, -54.20544350940421 -51.71004014507643, -54.000898706019164 -54.82774180934345 M-55.238022486934995 -54.072928352587034 C-59.020397118851584 -51.08272133085362, -59.51033181446375 -51.11718982071934, -64.83600952314173 -47.045761331881636 M-53.927198438129025 -55.288787942615784 C-56.75570818635174 -52.13529234059268, -59.95548804843222 -50.30855628049705, -66.45833893576173 -45.47682393246477 M-65.69742437288788 -45.115028974858525 C-62.98992473886948 -49.78194377275292, -60.85744210806445 -52.44687882001675, -59.665348452600355 -56.9638611275284 M-66.07028978156926 -45.80226379376263 C-63.25949790612244 -49.50004738610559, -61.053717421148946 -52.9462902751701, -59.096691012513084 -57.22215895121893 M-57.77693242277355 -56.70931311985677 C-63.732532391255866 -55.43789783915956, -66.16398692092058 -55.304933037621424, -77.74903713608906 -51.52474960400177 M-58.44340733357269 -56.93599016196232 C-63.88245301762579 -55.173399610483784, -67.79169278040365 -55.46217364513247, -76.34382036566193 -52.4408747353802 M-76.37750055349503 -51.37042070690718 C-73.22970063013847 -53.04833918819275, -67.4018739126957 -55.45943832016358, -62.98415926530586 -58.33788546299817 M-76.14054090472708 -51.886900115046636 C-71.08723357230974 -55.03448291339718, -66.55584476492916 -58.11054789937323, -61.83539668970384 -59.92057304203725 M-63.3646257530331 -59.028333658549364 C-65.75992012794485 -60.17502002474453, -72.1223481456283 -62.0190794589546, -79.93871237024084 -59.93344595831503 M-61.53405463552657 -59.01206172129837 C-68.09898207594513 -60.412924691391694, -74.8103352936329 -60.73848824745049, -80.07166857178973 -60.715269962646936 M-78.68395733015561 -60.133862175690794 C-75.02080355210344 -63.9801892503325, -66.34132659115288 -61.667111616794706, -61.06970216115071 -63.61733608614921 M-80.81640640091277 -61.29619372318508 C-75.96760826125565 -61.79992235040167, -70.65766961733215 -63.131856348588386, -62.1654720970842 -62.54676497406943 M-60.61959597880541 -63.453546821359545 C-67.11500143822992 -64.71565393966429, -70.62778300411763 -68.7472822647468, -75.36372642574825 -72.21132554567997 M-61.81431173507912 -64.05035574125037 C-66.94012801076595 -64.7871447080629, -70.71981057921124 -67.72163252118214, -76.96890262850978 -69.99997417164165 M-77.68944966901776 -72.03765475260393 C-69.4504130461666 -70.16781288584217, -65.85337064809907 -67.5260031121057, -57.92841694696534 -67.389133788284 M-76.28277758293214 -70.8228199546302 C-70.40319529725073 -69.28547532032414, -64.30886773956642 -67.89684517488448, -60.12611114463747 -67.20040586821874 M-58.19570259734859 -65.2491070280619 C-61.115141568031326 -70.05836093726879, -63.53570842354537 -75.78793850512544, -66.97383765781244 -77.94958286743007 M-59.54209920490712 -65.96438973804268 C-62.372803287346215 -70.41550639846632, -64.62511880695368 -74.74591216778119, -66.3909587169296 -77.45426718634826 M-67.11825388239903 -77.1917480632804 C-63.38679887711619 -74.88404303808844, -57.43495384262205 -71.39902147169573, -54.85975954217233 -68.47250980043745 M-65.81951054589668 -78.19108009189918 C-61.464371346928374 -74.05269141762756, -58.30844995059832 -70.97028443429626, -54.8844066659244 -68.03279523792514 M-54.251029400510156 -69.34886011023879 C-54.41813258248266 -72.76117750164053, -52.32392416342195 -78.1688238706331, -50.690453116429964 -80.01009066775896 M-54.63443494052141 -67.70641152359954 C-54.16194327558843 -71.47847781211128, -52.90791826418606 -75.2116366934708, -51.9926646284771 -80.04345083573762 M-52.78515566365824 -79.28671182520317 C-50.12804976545614 -74.27383248501184, -50.41464629797036 -71.5884791439207, -48.895868788454976 -68.9621794638477 M-51.538401922687285 -79.55650582107961 C-50.651214892244155 -76.09805643258412, -50.7189652830988 -73.10484730499964, -49.15879897300187 -68.2482429805576 M-50.380760435704396 -67.71908283208491 C-45.52536127090498 -69.27984403138674, -43.32817284432571 -71.98493155103637, -37.328552278229715 -78.64124727769828 M-49.73295865743948 -67.78041907489862 C-46.73748813911245 -70.08753764922461, -43.52930093826212 -71.56927919508193, -37.73070482734102 -77.21827700699109 M-38.864273835390485 -78.67833498759424 C-39.77998424344028 -74.67970817982557, -40.849947969175474 -73.2465208767859, -43.799608477911455 -66.63888489704613 M-37.68120498634146 -77.32306299090367 C-40.61035208532873 -73.92556687958827, -41.9589259612735 -70.29302766802323, -44.124459037363586 -65.88181219753518 M-45.356869435944134 -66.40686734460874 C-40.3678972049907 -68.98626169637538, -32.20319918244279 -68.76037056905756, -27.273927791675238 -71.8132752483537 M-45.026692150988325 -66.42075483355593 C-38.77209362702659 -67.13823215671515, -33.94703778332098 -69.4912156135236, -26.593919934962205 -71.57750320074679 M-28.577472248937635 -71.85441227738703 C-31.663082031206585 -67.83683707254734, -34.0740163905178 -66.6104549370224, -41.46004808496194 -64.62365698881939 M-27.934791173303996 -70.16468780874175 C-31.30987934026466 -68.56838223161547, -36.459013439752624 -66.70136678897791, -41.56153109259723 -63.71378244261726 M-41.42204886483152 -63.97053264127359 C-33.97953629392575 -62.49216145389275, -28.348722972419385 -62.213378628895775, -22.36607495890585 -61.068588345399974 M-40.840295073456566 -64.14609135305147 C-37.89930007121186 -63.08002171548912, -34.353183246229555 -63.416194413356, -23.94282008698867 -61.70079394391776 M-24.64148716700356 -60.48439441475099 C-30.65526453724048 -60.44465831857227, -33.55022350861323 -58.906254687098006, -40.50305757792357 -58.40925206751895 M-24.56231666275678 -62.0566029554632 C-28.598032445395106 -60.95112581040407, -34.05740501704427 -60.87802047600409, -41.67913733569654 -60.21954212398018 M-41.634366569383516 -59.800130714021584 C-41.634366569383516 -59.800130714021584, -41.634366569383516 -59.800130714021584, -41.634366569383516 -59.800130714021584 M-41.634366569383516 -59.800130714021584 C-41.634366569383516 -59.800130714021584, -41.634366569383516 -59.800130714021584, -41.634366569383516 -59.800130714021584" stroke="#000000" stroke-width="1" fill="none"></path></g></g><g transform="translate(394.695068359375 407.0614399235217) rotate(0 64.5 25)"><text x="64.5" y="18" font-family="Virgil, Segoe UI Emoji" font-size="20px" fill="#000000" text-anchor="middle" style="white-space: pre;" direction="ltr">Event</text><text x="64.5" y="43" font-family="Virgil, Segoe UI Emoji" font-size="20px" fill="#000000" text-anchor="middle" style="white-space: pre;" direction="ltr">order.created</text></g><g transform="translate(775.9831746218013 10) rotate(0 106.90915067486856 63.983921365462095)"><path d="M-1.7462216872492957 -0.2351567887442506 C57.06460992497686 -0.5189514273343269, 116.05134403579291 -1.9156724525886224, 213.653149462644 1.1067882084849496 M0.5284324018836515 -0.5183983390504895 C52.513865999004835 -0.4843782236281339, 103.72226350150159 -0.9138514592995292, 213.91270854850768 0.5410508614678031 M213.07699715518243 0.5052246507257223 C213.63563085884 38.22977779629199, 215.02376790136242 75.23381664437291, 212.34803670071847 128.82296995189762 M213.24404421713984 0.03395239729434252 C214.92752913335062 50.63450411503794, 213.987905211241 100.25047960750078, 214.37625277307666 128.84099875413602 M214.43249008029778 127.82857289642101 C148.92123697482594 128.36144128852757, 80.13646120204278 127.96514575694133, 1.2786988790998317 129.379968401694 M214.47617629443607 128.4380761992336 C170.40765354193587 127.78287177977623, 126.53575470773535 127.90662373605187, -0.7932401993170295 128.2506189657072 M-1.5016113873571157 127.68456361559008 C1.5574776515236994 98.57699014762754, -0.38581001908863577 68.24292093686715, 1.7712477687746286 -0.09895347990095615 M-0.3447506995871663 128.50682295881933 C-1.7380538741045246 93.23659494725655, 0.01675160136887932 58.79435174556929, 0.2789491740986705 -0.8444170830771327" stroke="#000000" stroke-width="1" fill="none"></path></g><g><g transform="translate(773.3819594806916 27.050260255808098) rotate(0 107.07148301431903 -0.04287818346173822)"><path d="M-1.1947579476982355 -0.16089334152638912 C34.57700268743559 -0.21859277151525022, 179.04354016920547 -0.04908215664327145, 215.33772397633638 -0.21784611605107784 M0.3788554004207252 -1.290966291166842 C35.9235004604794 -1.1745901736989617, 178.34143679054452 1.0687264993414285, 214.3463718820363 1.2052099242433907" stroke="#000000" stroke-width="1" fill="none"></path></g></g><g transform="translate(783.4870480775487 17.14194873422275) rotate(0 4.18156491199818 4.181564911998208)"><path d="M4.181564911998206 0 C5.032719981600142 -0.053387742739625356, 6.1830834356873625 0.40239305008172543, 6.869423026530637 0.978300347620682 C7.555762617373911 1.5542076451596385, 8.144021902585909 2.5731026151709684, 8.299602457057851 3.455443785233739 C8.455183011529794 4.33778495529651, 8.250882705784365 5.496429565012899, 7.802906353362292 6.272347367997308 C7.354930000940221 7.0482651709817175, 6.453664487840636 7.804516730616381, 5.611744342525419 8.110950603140196 C4.769824197210203 8.417384475664011, 3.5933056267862087 8.417384475664011, 2.751385481470992 8.110950603140196 C1.9094653361557752 7.804516730616381, 1.0081998230561904 7.0482651709817175, 0.5602234706341185 6.272347367997308 C0.11224711821204664 5.496429565012899, -0.09205318753338165 4.3377849552965095, 0.06352736693856098 3.4554437852337387 C0.21910792141050361 2.573102615170968, 0.8073672066225003 1.554207645159639, 1.4937067974657743 0.9783003476206824 C2.1800463883090484 0.402393050081726, 3.733588559576133 0.14911150823011976, 4.181564911998205 0 C4.6295412644202765 -0.14911150823011976, 4.181564911998206 0.01393854970666042, 4.181564911998206 0.08363129823996385 M4.181564911998206 0 C5.032719981600142 -0.053387742739625356, 6.1830834356873625 0.40239305008172543, 6.869423026530637 0.978300347620682 C7.555762617373911 1.5542076451596385, 8.144021902585909 2.5731026151709684, 8.299602457057851 3.455443785233739 C8.455183011529794 4.33778495529651, 8.250882705784365 5.496429565012899, 7.802906353362292 6.272347367997308 C7.354930000940221 7.0482651709817175, 6.453664487840636 7.804516730616381, 5.611744342525419 8.110950603140196 C4.769824197210203 8.417384475664011, 3.5933056267862087 8.417384475664011, 2.751385481470992 8.110950603140196 C1.9094653361557752 7.804516730616381, 1.0081998230561904 7.0482651709817175, 0.5602234706341185 6.272347367997308 C0.11224711821204664 5.496429565012899, -0.09205318753338165 4.3377849552965095, 0.06352736693856098 3.4554437852337387 C0.21910792141050361 2.573102615170968, 0.8073672066225003 1.554207645159639, 1.4937067974657743 0.9783003476206824 C2.1800463883090484 0.402393050081726, 3.733588559576133 0.14911150823011976, 4.181564911998205 0 C4.6295412644202765 -0.14911150823011976, 4.181564911998206 0.01393854970666042, 4.181564911998206 0.08363129823996385" stroke="none" stroke-width="0" fill="#fa5252"></path><path d="M4.181564911998206 0 C5.032719981600142 -0.053387742739625356, 6.1830834356873625 0.40239305008172543, 6.869423026530637 0.978300347620682 C7.555762617373911 1.5542076451596385, 8.144021902585909 2.5731026151709684, 8.299602457057851 3.455443785233739 C8.455183011529794 4.33778495529651, 8.250882705784365 5.496429565012899, 7.802906353362292 6.272347367997308 C7.354930000940221 7.0482651709817175, 6.453664487840636 7.804516730616381, 5.611744342525419 8.110950603140196 C4.769824197210203 8.417384475664011, 3.5933056267862087 8.417384475664011, 2.751385481470992 8.110950603140196 C1.9094653361557752 7.804516730616381, 1.0081998230561904 7.0482651709817175, 0.5602234706341185 6.272347367997308 C0.11224711821204664 5.496429565012899, -0.09205318753338165 4.3377849552965095, 0.06352736693856098 3.4554437852337387 C0.21910792141050361 2.573102615170968, 0.8073672066225003 1.554207645159639, 1.4937067974657743 0.9783003476206824 C2.1800463883090484 0.402393050081726, 3.733588559576133 0.14911150823011976, 4.181564911998205 0 C4.6295412644202765 -0.14911150823011976, 4.181564911998206 0.01393854970666042, 4.181564911998206 0.08363129823996385 M4.181564911998206 0 C5.032719981600142 -0.053387742739625356, 6.1830834356873625 0.40239305008172543, 6.869423026530637 0.978300347620682 C7.555762617373911 1.5542076451596385, 8.144021902585909 2.5731026151709684, 8.299602457057851 3.455443785233739 C8.455183011529794 4.33778495529651, 8.250882705784365 5.496429565012899, 7.802906353362292 6.272347367997308 C7.354930000940221 7.0482651709817175, 6.453664487840636 7.804516730616381, 5.611744342525419 8.110950603140196 C4.769824197210203 8.417384475664011, 3.5933056267862087 8.417384475664011, 2.751385481470992 8.110950603140196 C1.9094653361557752 7.804516730616381, 1.0081998230561904 7.0482651709817175, 0.5602234706341185 6.272347367997308 C0.11224711821204664 5.496429565012899, -0.09205318753338165 4.3377849552965095, 0.06352736693856098 3.4554437852337387 C0.21910792141050361 2.573102615170968, 0.8073672066225003 1.554207645159639, 1.4937067974657743 0.9783003476206824 C2.1800463883090484 0.402393050081726, 3.733588559576133 0.14911150823011976, 4.181564911998205 0 C4.6295412644202765 -0.14911150823011976, 4.181564911998206 0.01393854970666042, 4.181564911998206 0.08363129823996385" stroke="#000000" stroke-width="1" fill="none"></path></g><g transform="translate(800.6459960120208 17.14194873422275) rotate(0 4.18156491199818 4.181564911998208)"><path d="M4.181564911998206 0 C5.032719981600142 -0.053387742739625356, 6.1830834356873625 0.40239305008172543, 6.869423026530637 0.978300347620682 C7.555762617373911 1.5542076451596385, 8.144021902585909 2.5731026151709684, 8.299602457057851 3.455443785233739 C8.455183011529794 4.33778495529651, 8.250882705784365 5.496429565012899, 7.802906353362292 6.272347367997308 C7.354930000940221 7.0482651709817175, 6.453664487840636 7.804516730616381, 5.611744342525419 8.110950603140196 C4.769824197210203 8.417384475664011, 3.5933056267862087 8.417384475664011, 2.751385481470992 8.110950603140196 C1.9094653361557752 7.804516730616381, 1.0081998230561904 7.0482651709817175, 0.5602234706341185 6.272347367997308 C0.11224711821204664 5.496429565012899, -0.09205318753338165 4.3377849552965095, 0.06352736693856098 3.4554437852337387 C0.21910792141050361 2.573102615170968, 0.8073672066225003 1.554207645159639, 1.4937067974657743 0.9783003476206824 C2.1800463883090484 0.402393050081726, 3.733588559576133 0.14911150823011976, 4.181564911998205 0 C4.6295412644202765 -0.14911150823011976, 4.181564911998206 0.01393854970666042, 4.181564911998206 0.08363129823996385 M4.181564911998206 0 C5.032719981600142 -0.053387742739625356, 6.1830834356873625 0.40239305008172543, 6.869423026530637 0.978300347620682 C7.555762617373911 1.5542076451596385, 8.144021902585909 2.5731026151709684, 8.299602457057851 3.455443785233739 C8.455183011529794 4.33778495529651, 8.250882705784365 5.496429565012899, 7.802906353362292 6.272347367997308 C7.354930000940221 7.0482651709817175, 6.453664487840636 7.804516730616381, 5.611744342525419 8.110950603140196 C4.769824197210203 8.417384475664011, 3.5933056267862087 8.417384475664011, 2.751385481470992 8.110950603140196 C1.9094653361557752 7.804516730616381, 1.0081998230561904 7.0482651709817175, 0.5602234706341185 6.272347367997308 C0.11224711821204664 5.496429565012899, -0.09205318753338165 4.3377849552965095, 0.06352736693856098 3.4554437852337387 C0.21910792141050361 2.573102615170968, 0.8073672066225003 1.554207645159639, 1.4937067974657743 0.9783003476206824 C2.1800463883090484 0.402393050081726, 3.733588559576133 0.14911150823011976, 4.181564911998205 0 C4.6295412644202765 -0.14911150823011976, 4.181564911998206 0.01393854970666042, 4.181564911998206 0.08363129823996385" stroke="none" stroke-width="0" fill="#fab005"></path><path d="M4.181564911998206 0 C5.032719981600142 -0.053387742739625356, 6.1830834356873625 0.40239305008172543, 6.869423026530637 0.978300347620682 C7.555762617373911 1.5542076451596385, 8.144021902585909 2.5731026151709684, 8.299602457057851 3.455443785233739 C8.455183011529794 4.33778495529651, 8.250882705784365 5.496429565012899, 7.802906353362292 6.272347367997308 C7.354930000940221 7.0482651709817175, 6.453664487840636 7.804516730616381, 5.611744342525419 8.110950603140196 C4.769824197210203 8.417384475664011, 3.5933056267862087 8.417384475664011, 2.751385481470992 8.110950603140196 C1.9094653361557752 7.804516730616381, 1.0081998230561904 7.0482651709817175, 0.5602234706341185 6.272347367997308 C0.11224711821204664 5.496429565012899, -0.09205318753338165 4.3377849552965095, 0.06352736693856098 3.4554437852337387 C0.21910792141050361 2.573102615170968, 0.8073672066225003 1.554207645159639, 1.4937067974657743 0.9783003476206824 C2.1800463883090484 0.402393050081726, 3.733588559576133 0.14911150823011976, 4.181564911998205 0 C4.6295412644202765 -0.14911150823011976, 4.181564911998206 0.01393854970666042, 4.181564911998206 0.08363129823996385 M4.181564911998206 0 C5.032719981600142 -0.053387742739625356, 6.1830834356873625 0.40239305008172543, 6.869423026530637 0.978300347620682 C7.555762617373911 1.5542076451596385, 8.144021902585909 2.5731026151709684, 8.299602457057851 3.455443785233739 C8.455183011529794 4.33778495529651, 8.250882705784365 5.496429565012899, 7.802906353362292 6.272347367997308 C7.354930000940221 7.0482651709817175, 6.453664487840636 7.804516730616381, 5.611744342525419 8.110950603140196 C4.769824197210203 8.417384475664011, 3.5933056267862087 8.417384475664011, 2.751385481470992 8.110950603140196 C1.9094653361557752 7.804516730616381, 1.0081998230561904 7.0482651709817175, 0.5602234706341185 6.272347367997308 C0.11224711821204664 5.496429565012899, -0.09205318753338165 4.3377849552965095, 0.06352736693856098 3.4554437852337387 C0.21910792141050361 2.573102615170968, 0.8073672066225003 1.554207645159639, 1.4937067974657743 0.9783003476206824 C2.1800463883090484 0.402393050081726, 3.733588559576133 0.14911150823011976, 4.181564911998205 0 C4.6295412644202765 -0.14911150823011976, 4.181564911998206 0.01393854970666042, 4.181564911998206 0.08363129823996385" stroke="#000000" stroke-width="1" fill="none"></path></g><g transform="translate(818.5585374788313 17.89554226655696) rotate(0 4.18156491199818 4.181564911998208)"><path d="M4.181564911998206 0 C5.032719981600142 -0.053387742739625356, 6.1830834356873625 0.40239305008172543, 6.869423026530637 0.978300347620682 C7.555762617373911 1.5542076451596385, 8.144021902585909 2.5731026151709684, 8.299602457057851 3.455443785233739 C8.455183011529794 4.33778495529651, 8.250882705784365 5.496429565012899, 7.802906353362292 6.272347367997308 C7.354930000940221 7.0482651709817175, 6.453664487840636 7.804516730616381, 5.611744342525419 8.110950603140196 C4.769824197210203 8.417384475664011, 3.5933056267862087 8.417384475664011, 2.751385481470992 8.110950603140196 C1.9094653361557752 7.804516730616381, 1.0081998230561904 7.0482651709817175, 0.5602234706341185 6.272347367997308 C0.11224711821204664 5.496429565012899, -0.09205318753338165 4.3377849552965095, 0.06352736693856098 3.4554437852337387 C0.21910792141050361 2.573102615170968, 0.8073672066225003 1.554207645159639, 1.4937067974657743 0.9783003476206824 C2.1800463883090484 0.402393050081726, 3.733588559576133 0.14911150823011976, 4.181564911998205 0 C4.6295412644202765 -0.14911150823011976, 4.181564911998206 0.01393854970666042, 4.181564911998206 0.08363129823996385 M4.181564911998206 0 C5.032719981600142 -0.053387742739625356, 6.1830834356873625 0.40239305008172543, 6.869423026530637 0.978300347620682 C7.555762617373911 1.5542076451596385, 8.144021902585909 2.5731026151709684, 8.299602457057851 3.455443785233739 C8.455183011529794 4.33778495529651, 8.250882705784365 5.496429565012899, 7.802906353362292 6.272347367997308 C7.354930000940221 7.0482651709817175, 6.453664487840636 7.804516730616381, 5.611744342525419 8.110950603140196 C4.769824197210203 8.417384475664011, 3.5933056267862087 8.417384475664011, 2.751385481470992 8.110950603140196 C1.9094653361557752 7.804516730616381, 1.0081998230561904 7.0482651709817175, 0.5602234706341185 6.272347367997308 C0.11224711821204664 5.496429565012899, -0.09205318753338165 4.3377849552965095, 0.06352736693856098 3.4554437852337387 C0.21910792141050361 2.573102615170968, 0.8073672066225003 1.554207645159639, 1.4937067974657743 0.9783003476206824 C2.1800463883090484 0.402393050081726, 3.733588559576133 0.14911150823011976, 4.181564911998205 0 C4.6295412644202765 -0.14911150823011976, 4.181564911998206 0.01393854970666042, 4.181564911998206 0.08363129823996385" stroke="none" stroke-width="0" fill="#40c057"></path><path d="M4.181564911998206 0 C5.032719981600142 -0.053387742739625356, 6.1830834356873625 0.40239305008172543, 6.869423026530637 0.978300347620682 C7.555762617373911 1.5542076451596385, 8.144021902585909 2.5731026151709684, 8.299602457057851 3.455443785233739 C8.455183011529794 4.33778495529651, 8.250882705784365 5.496429565012899, 7.802906353362292 6.272347367997308 C7.354930000940221 7.0482651709817175, 6.453664487840636 7.804516730616381, 5.611744342525419 8.110950603140196 C4.769824197210203 8.417384475664011, 3.5933056267862087 8.417384475664011, 2.751385481470992 8.110950603140196 C1.9094653361557752 7.804516730616381, 1.0081998230561904 7.0482651709817175, 0.5602234706341185 6.272347367997308 C0.11224711821204664 5.496429565012899, -0.09205318753338165 4.3377849552965095, 0.06352736693856098 3.4554437852337387 C0.21910792141050361 2.573102615170968, 0.8073672066225003 1.554207645159639, 1.4937067974657743 0.9783003476206824 C2.1800463883090484 0.402393050081726, 3.733588559576133 0.14911150823011976, 4.181564911998205 0 C4.6295412644202765 -0.14911150823011976, 4.181564911998206 0.01393854970666042, 4.181564911998206 0.08363129823996385 M4.181564911998206 0 C5.032719981600142 -0.053387742739625356, 6.1830834356873625 0.40239305008172543, 6.869423026530637 0.978300347620682 C7.555762617373911 1.5542076451596385, 8.144021902585909 2.5731026151709684, 8.299602457057851 3.455443785233739 C8.455183011529794 4.33778495529651, 8.250882705784365 5.496429565012899, 7.802906353362292 6.272347367997308 C7.354930000940221 7.0482651709817175, 6.453664487840636 7.804516730616381, 5.611744342525419 8.110950603140196 C4.769824197210203 8.417384475664011, 3.5933056267862087 8.417384475664011, 2.751385481470992 8.110950603140196 C1.9094653361557752 7.804516730616381, 1.0081998230561904 7.0482651709817175, 0.5602234706341185 6.272347367997308 C0.11224711821204664 5.496429565012899, -0.09205318753338165 4.3377849552965095, 0.06352736693856098 3.4554437852337387 C0.21910792141050361 2.573102615170968, 0.8073672066225003 1.554207645159639, 1.4937067974657743 0.9783003476206824 C2.1800463883090484 0.402393050081726, 3.733588559576133 0.14911150823011976, 4.181564911998205 0 C4.6295412644202765 -0.14911150823011976, 4.181564911998206 0.01393854970666042, 4.181564911998206 0.08363129823996385" stroke="#000000" stroke-width="1" fill="none"></path></g><g stroke-opacity="0.9" fill-opacity="0.9" transform="translate(845.355348325264 44.73466721527882) rotate(0 35.71350940481079 35.71350940481079)"><path d="M22.871280021698176 2.4323570021272403 C29.171252076076236 -0.5499671369473167, 38.793499414943604 0.3120599885690667, 45.74215989938508 2.313116703478208 C52.690820383826555 4.31417341838735, 60.17425920020182 8.620972055814384, 64.56324292834704 14.438697291582088 C68.95222665649226 20.25642252734979, 72.35180177383347 29.794228360928503, 72.07606226825638 37.21946811808442 C71.80032276267929 44.644707875240336, 67.80893097925451 53.44665839008716, 62.90880589488445 58.99013583451759 C58.00868081051439 64.53361327894801, 49.58510156231098 68.94475004724632, 42.67531176203601 70.48033278466698 C35.76552196176104 72.01591552208765, 27.859491220044763 71.42116394701527, 21.450067093234622 68.20363225904157 C15.040642966424482 64.98610057106787, 7.835106203514346 57.53108205162765, 4.218767001175163 51.175142656824775 C0.6024277988359792 44.8192032620219, -1.4767608744282843 37.09853629634626, -0.24796812080047914 30.06799589022434 C0.980824632827326 23.037455484102416, 7.060550168384011 13.692496133973577, 11.591523522941994 8.99190022009325 C16.122496877499977 4.291304306212922, 23.29628998218967 3.3221860663395875, 26.93787200654742 1.8644204069423722 C30.57945403090517 0.40665474754515674, 33.27184525744688 -0.03057137914368724, 33.44101566908849 0.24530626370995634 M23.1901202949499 2.6459108084409877 C29.490976216519286 -0.2224122776911468, 40.43510706425791 -1.4405712630899035, 47.5501694461534 0.8368983425214225 C54.66523182804888 3.1143679481327484, 61.95082596370047 10.214410081127813, 65.88049458632281 16.310728442108942 C69.81016320894516 22.407046803090072, 71.64826511660193 30.37882270948999, 71.12818118188747 37.41480850840819 C70.608097247173 44.45079430732639, 67.48622424264019 53.04372485976158, 62.759990978036065 58.52664323561814 C58.033757713431946 64.0095616114747, 49.969115064448104 69.00795107542723, 42.77078159426275 70.31231876354755 C35.5724481240774 71.61668645166787, 26.302408709015424 69.3115039968065, 19.56999015692393 66.3528493643401 C12.837571604832434 63.39419473187371, 5.707141602543919 58.865414908161505, 2.3762702817137864 52.56039096874919 C-0.9546010391163455 46.255367029336874, -2.3179246572433687 35.61750836743308, -0.41523776805686197 28.522705727866207 C1.4874491211296448 21.427903088299335, 9.73025109760717 14.259213976105222, 13.792391616832827 9.99157513134795 C17.854532136058484 5.7239362865906775, 22.20765189796613 4.2865280355725774, 23.957605347297076 2.9168726593225713 C25.70755879662802 1.547217283072565, 24.40528298308657 1.4092027753706045, 24.292112312818503 1.773642873847912" stroke="none" stroke-width="0" fill="#04aaf7"></path><path d="M34.835114622616615 0.6002145917922377 C41.72634478845599 -0.19739211938359524, 50.848464433286914 1.6883689261114725, 56.834010534461655 5.891048889955957 C62.819556635636395 10.093728853800442, 68.64022030919347 18.72630104711475, 70.74839122966507 25.816294374859147 C72.85656215013668 32.90628770260354, 72.18138271394432 41.611390410797604, 69.48303605729126 48.43100885642234 C66.7846894006382 55.25062730204707, 60.822925313008476 62.919845927805866, 54.55831128974672 66.73400504860756 C48.29369726648496 70.54816416940925, 39.29778517069758 72.25759583556827, 31.895351917720735 71.3159635812325 C24.49291866474389 70.37433132689672, 15.354326230715833 66.1781105844895, 10.143711771885641 61.08421152259289 C4.93309731305545 55.990312460696266, 1.5562306868137843 47.81312317235392, 0.6316651647395872 40.752569209852766 C-0.29290035733460995 33.69201524735161, 1.1626831464566956 25.16925496371659, 4.596318639440458 18.720887747585984 C8.029954132424221 12.272520531455378, 16.040866826795266 5.0283203128070895, 21.23347812264216 2.0623659130691223 C26.426089418489056 -0.9035884866688448, 33.16598592636086 1.084961136589481, 35.75198641452183 0.9251613491581807 C38.3379869026828 0.7653615617268805, 36.90996639877572 0.6565589250960369, 36.749481051607994 1.1035671884813212 M51.27590020135144 4.518952101861963 C57.80599014153808 7.194177266974325, 65.88379701141513 13.943872680989905, 69.12493704580606 20.23467209359749 C72.366077080197 26.525471506205072, 72.34092576500694 35.1752430096044, 70.7227404076971 42.26374857750747 C69.10455505038726 49.35225414541054, 64.7286915136455 57.72445649028453, 59.41582490194705 62.76570550101593 C54.10295829024859 67.80695451174734, 46.28640650339597 72.01703234521288, 38.845540737506354 72.51124264189588 C31.404674971616735 73.00545293857887, 20.79720963596912 69.90504255546034, 14.770630306609341 65.73096728111389 C8.744050977249561 61.55689200676744, 5.011474142863088 54.78845567841865, 2.686064761347666 47.46679099581719 C0.36065537983224294 40.145126313215734, -1.588799302028232 28.639386009879928, 0.8181740175168031 21.800979185505128 C3.225147337061838 14.962572361130327, 10.543886834679608 10.069633305560087, 17.127904678617877 6.436350049568382 C23.711922522556147 2.803066793576677, 34.699764932341466 0.6591399885073118, 40.32228108114643 0.0012796495548954567 C45.94479722995139 -0.6565806893975209, 49.12358084191874 1.9950970965188901, 50.86300157144764 2.489188015853884 C52.60242230097654 2.9832789351888778, 50.83406194735362 2.3991290301469768, 50.758805458319834 2.9658251655648584" stroke="#000000" stroke-width="1" fill="none"></path></g><g><g transform="translate(874.0129821004948 65.60392565247435) rotate(0 10.819663694035057 17.091568969290677)" fill-rule="evenodd"><path d="M16.616321375195227 6.257417729982587 L13.555668285528249 5.5641532762235695 L3.955724303535367 -4.228569719133945 L0.3221980399488644 -3.9345124639045874 L-2.373432197559635 -1.0117066261684922 L-3.9577198836195278 4.351665654168016 L-4.4702079709284925 10.225559038527907 L-2.2249676820160786 17.526590963680423 L-12.516984713388897 21.114742132299256 L-13.479148977584629 25.34648347111805 L-12.146965459265035 29.06842887793623 L-8.477607855869405 29.725072144545862 L-4.084200230515237 28.578212590550176 L0.4188248851013199 22.42116219292801 L2.078219199276939 22.10387677134458 L4.109506418313524 24.48620283586701 L10.563537279958283 36.13160437962327 L14.124401583533572 38.6577411209094 L15.427641659039294 38.43425216814491 L15.921964256345472 36.636324107464574 L10.300869290919692 14.283621677895564 L11.589780399360333 12.498610743870639 L14.080861509263585 12.349225307181975 L18.934651887144568 13.526542086133604 L21.903942198015528 16.06754485388633 L27.003412798252704 16.773137232032273 L32.058915061194284 16.06754485388633 L34.69002033617806 11.643632929036029 L34.6764586737005 7.319069571303917 L25.82158529050639 8.55503463759632 L23.67409603718862 8.113858108249412 L23.448205135473977 5.820252308386566 L25.789144366316663 -3.372866732276612 L23.685230875854334 -4.206270679434098 L20.750487115715607 -2.6796022785175957 L18.144934867926313 0.9642058428481388 L16.218893287432493 4.714251665548284 L16.616321375195227 6.257417729982587" stroke="none" stroke-width="0" fill="#40c057" fill-rule="evenodd"></path><path d="M16.616321375195227 6.257417729982587 C16.106212526917396 6.1418736543560835, 15.66576779747156 7.3118178510763245, 13.555668285528249 5.5641532762235695 C11.445568773584938 3.8164887013708144, 6.610574384050015 -3.1325930687352677, 3.955724303535367 -4.228569719133945 C1.3008742230207195 -5.324546369532621, -0.9691101518156586 -3.4207280857788005, -2.373432197559635 -1.0117066261684922 C-3.7777542433036118 1.3973148334418164, -4.494952056852418 7.135842773553087, -4.4702079709284925 10.225559038527907 C-4.445463885004567 13.315275303502727, -0.8838382249393444 15.711727114718531, -2.2249676820160786 17.526590963680423 C-3.566097139092813 19.341454812642315, -10.863318417180738 19.191102479923288, -12.516984713388897 21.114742132299256 C-14.170651009597057 23.038381784675224, -13.552429539743978 27.82451713489441, -12.146965459265035 29.06842887793623 C-10.741501378786092 30.312340620978052, -6.455064340272233 29.73897127498212, -4.084200230515237 28.578212590550176 C-1.7133361207582416 27.417453906118233, -0.3630703858019806 20.8449781398324, 2.078219199276939 22.10387677134458 C4.519508784355859 23.362775402856762, 8.256246437113527 33.70952982360327, 10.563537279958283 36.13160437962327 C12.870828122803038 38.55367893564327, 15.96574225451857 40.27765455775253, 15.921964256345472 36.636324107464574 C15.878186258172374 32.99499365717662, 9.798754685786509 18.135252014784058, 10.300869290919692 14.283621677895564 C10.802983896052876 10.431991341007068, 17.000806402628594 13.22922155680181, 18.934651887144568 13.526542086133604 C20.868497371660542 13.823862615465398, 19.716565002340577 15.644044392594207, 21.903942198015528 16.06754485388633 C24.09131939369048 16.49104531517845, 29.93016231524679 17.525624067650064, 32.058915061194284 16.06754485388633 C34.18766780714178 14.609465640122593, 36.07392851103478 8.64468402891007, 34.6764586737005 7.319069571303917 C33.278988836366224 5.993455113697764, 25.155315088419258 9.8958474921795, 23.67409603718862 8.113858108249412 C22.19287698595798 6.331868724319324, 26.276412519895498 -1.573956667815444, 25.789144366316663 -3.372866732276612 C25.301876212737827 -5.17177679673778, 22.3455289621963 -4.027455344821745, 20.750487115715607 -2.6796022785175957 C19.155445269234914 -1.3317492122134464, 16.907920910852557 3.2247483307982536, 16.218893287432493 4.714251665548284 C15.52986566401243 6.203755000298314, 16.550083360568106 6.0002233859102025, 16.616321375195227 6.257417729982587 M16.616321375195227 6.257417729982587 C16.106212526917396 6.1418736543560835, 15.66576779747156 7.3118178510763245, 13.555668285528249 5.5641532762235695 C11.445568773584938 3.8164887013708144, 6.610574384050015 -3.1325930687352677, 3.955724303535367 -4.228569719133945 C1.3008742230207195 -5.324546369532621, -0.9691101518156586 -3.4207280857788005, -2.373432197559635 -1.0117066261684922 C-3.7777542433036118 1.3973148334418164, -4.494952056852418 7.135842773553087, -4.4702079709284925 10.225559038527907 C-4.445463885004567 13.315275303502727, -0.8838382249393444 15.711727114718531, -2.2249676820160786 17.526590963680423 C-3.566097139092813 19.341454812642315, -10.863318417180738 19.191102479923288, -12.516984713388897 21.114742132299256 C-14.170651009597057 23.038381784675224, -13.552429539743978 27.82451713489441, -12.146965459265035 29.06842887793623 C-10.741501378786092 30.312340620978052, -6.455064340272233 29.73897127498212, -4.084200230515237 28.578212590550176 C-1.7133361207582416 27.417453906118233, -0.3630703858019806 20.8449781398324, 2.078219199276939 22.10387677134458 C4.519508784355859 23.362775402856762, 8.256246437113527 33.70952982360327, 10.563537279958283 36.13160437962327 C12.870828122803038 38.55367893564327, 15.96574225451857 40.27765455775253, 15.921964256345472 36.636324107464574 C15.878186258172374 32.99499365717662, 9.798754685786509 18.135252014784058, 10.300869290919692 14.283621677895564 C10.802983896052876 10.431991341007068, 17.000806402628594 13.22922155680181, 18.934651887144568 13.526542086133604 C20.868497371660542 13.823862615465398, 19.716565002340577 15.644044392594207, 21.903942198015528 16.06754485388633 C24.09131939369048 16.49104531517845, 29.93016231524679 17.525624067650064, 32.058915061194284 16.06754485388633 C34.18766780714178 14.609465640122593, 36.07392851103478 8.64468402891007, 34.6764586737005 7.319069571303917 C33.278988836366224 5.993455113697764, 25.155315088419258 9.8958474921795, 23.67409603718862 8.113858108249412 C22.19287698595798 6.331868724319324, 26.276412519895498 -1.573956667815444, 25.789144366316663 -3.372866732276612 C25.301876212737827 -5.17177679673778, 22.3455289621963 -4.027455344821745, 20.750487115715607 -2.6796022785175957 C19.155445269234914 -1.3317492122134464, 16.907920910852557 3.2247483307982536, 16.218893287432493 4.714251665548284 C15.52986566401243 6.203755000298314, 16.550083360568106 6.0002233859102025, 16.616321375195227 6.257417729982587" stroke="#087f5b" stroke-width="1" fill="none"></path></g></g><g><g stroke-opacity="0.9" fill-opacity="0.9" transform="translate(846.0297765229784 79.34447829659734) rotate(0 35.19916638738357 0.17082179384306073)"><path d="M-0.11299626566469678 0.7572600994259118 C11.309340066943541 1.1133275303989647, 57.82287447618432 0.9686203870922327, 69.68415009407087 0.9629274878650904 M-1.631458034478128 0.10921770628541716 C10.081168147172999 0.24658828672021635, 59.9841875234071 -0.429277121461928, 72.02979080924524 -0.654110329784453" stroke="#000000" stroke-width="1" fill="none"></path></g></g><g><g stroke-opacity="0.9" fill-opacity="0.9" transform="translate(855.6453238303839 56.143211004511386) rotate(0 24.509957126663835 2.2279281512655587)"><path d="M0 -2.1653016498015227 C0.2152440432941081 -1.5309050640605721, 0.147961644668253 0.47442837235282886, 1.2914642597646486 1.6410778646441813 C2.4349668748610442 2.8077273569355334, 4.697563702565638 3.9800132608304755, 6.861015690578374 4.834595303946592 C9.02446767859111 5.689177347062707, 11.101898019213625 6.416868580360916, 14.272176187841064 6.7685701233408775 C17.442454356468502 7.120271666320839, 21.689422448107006 7.120644574187637, 25.88268470234301 6.9448045618263645 C30.075946956579013 6.768964549465092, 35.85477103101519 6.665300614819746, 39.43174971325708 5.713530049173239 C43.00872839549896 4.761759483526733, 45.746529372449224 2.6204639539206407, 47.34455679579433 1.2341811679473291 C48.94258421913944 -0.15210161802598243, 48.740688010405506 -1.9644420275643024, 49.01991425332774 -2.6041666666666288 M0 -2.1653016498015227 C0.2152440432941081 -1.5309050640605721, 0.147961644668253 0.47442837235282886, 1.2914642597646486 1.6410778646441813 C2.4349668748610442 2.8077273569355334, 4.697563702565638 3.9800132608304755, 6.861015690578374 4.834595303946592 C9.02446767859111 5.689177347062707, 11.101898019213625 6.416868580360916, 14.272176187841064 6.7685701233408775 C17.442454356468502 7.120271666320839, 21.689422448107006 7.120644574187637, 25.88268470234301 6.9448045618263645 C30.075946956579013 6.768964549465092, 35.85477103101519 6.665300614819746, 39.43174971325708 5.713530049173239 C43.00872839549896 4.761759483526733, 45.746529372449224 2.6204639539206407, 47.34455679579433 1.2341811679473291 C48.94258421913944 -0.15210161802598243, 48.740688010405506 -1.9644420275643024, 49.01991425332774 -2.6041666666666288" stroke="#000000" stroke-width="1" fill="none"></path></g></g><g stroke-opacity="0.9" fill-opacity="0.9" transform="translate(869.1446920516285 42.423115209719526) rotate(0 12.98156032385009 37.470837591066925)"><path d="M17.486305919368593 2.108994659753783 C20.027278874680345 3.8840489025532907, 22.67065384115405 10.051332251994207, 24.08930392631693 16.707222112613962 C25.50795401147981 23.363111973233718, 26.35014696151116 34.071331968276, 25.99820643034588 42.04433382347231 C25.6462658991806 50.017335678668616, 24.134187009133967 59.13887002162741, 21.977660739325245 64.5452332437918 C19.821134469516522 69.95159646595619, 15.789891684600315 73.97148095804113, 13.059048811493547 74.48251315645865 C10.328205938386779 74.99354535487618, 7.7063243067594 72.18506389786299, 5.592603500684638 67.61142643429694 C3.4788826946098768 63.0377889707309, 1.1928349337837725 54.930317360986294, 0.37672397504497823 47.0406883750624 C-0.4393869836938159 39.15105938913851, -0.5982252604962266 27.422712804220488, 0.6959377482518736 20.27365251875359 C1.9901007569999738 13.124592233286691, 5.1296147251610105 6.842965784322958, 8.14170202753358 4.146326662261011 C11.153789329906148 1.4496875401990632, 16.829198699076372 3.5227115919961567, 18.768461562487293 4.093817786381905 C20.707724425898213 4.664923980767653, 19.743662264346096 7.0013649193736756, 19.777279207999115 7.572963828575499 M14.139062266374921 0.17417122407471908 C16.825694071497928 -0.6558637375251047, 19.234924398672973 2.7098872843759443, 21.255725612500434 7.749641306055498 C23.276526826327895 12.78939532773505, 25.515087387426984 22.212915365748763, 26.263869549339688 30.412695354152042 C27.012651711252392 38.61247534255532, 27.269459492085627 49.798076466326265, 25.748418583976665 56.94832123647515 C24.227377675867704 64.09856600662404, 19.799266740641645 70.4659695939496, 17.137624100685915 73.31416397504537 C14.475981460730184 76.16235835614116, 12.575967687265157 77.05119715240755, 9.77856274424228 74.03748752304983 C6.9811578012194015 71.02377789369211, 1.928797175708908 62.15105944364077, 0.35319444254864685 55.23190619889904 C-1.2224082906116143 48.31275295415731, -0.5037647637556146 40.25305280249902, 0.3249463452807131 32.522568054599446 C1.1536574543170408 24.79208330669987, 3.3487538080718693 14.46780245567992, 5.325461096766613 8.848997711501578 C7.302168385461357 3.2301929673232364, 11.006115058146591 0.38538716286432795, 12.185190077449175 -1.1902604104706072 C13.364265096751758 -2.7659079838055423, 12.209403328065276 -1.2621968074689227, 12.39991121258212 -0.6048877285080323" stroke="#000000" stroke-width="1" fill="none"></path></g><g><g stroke-opacity="0.9" fill-opacity="0.9" transform="translate(858.1799535970079 103.2615633070177) rotate(0 24.509957126663835 -0.7555285527924411)"><path d="M0 3.77990232019683 C1.1435026150963956 2.575490449001261, 4.48231965927153 -1.9093946756401812, 6.861015690578374 -3.4465689069765837 C9.239711721885218 -4.983743138312986, 11.101898019213625 -5.080057568464848, 14.272176187841064 -5.443143067821585 C17.442454356468502 -5.806228567178322, 21.689422448107006 -5.806613545412711, 25.88268470234301 -5.625081903117008 C30.075946956579013 -5.443550260821304, 35.85477103101519 -5.336530908113605, 39.43174971325708 -4.3539532140473645 C43.00872839549896 -3.3713755199811235, 45.746529372449224 -1.1607700445265636, 47.34455679579433 0.27038426128043924 C48.94258421913944 1.701538567087442, 48.740688010405506 3.5725412275422843, 49.01991425332774 4.232972620794653 M0 3.77990232019683 C1.1435026150963956 2.575490449001261, 4.48231965927153 -1.9093946756401812, 6.861015690578374 -3.4465689069765837 C9.239711721885218 -4.983743138312986, 11.101898019213625 -5.080057568464848, 14.272176187841064 -5.443143067821585 C17.442454356468502 -5.806228567178322, 21.689422448107006 -5.806613545412711, 25.88268470234301 -5.625081903117008 C30.075946956579013 -5.443550260821304, 35.85477103101519 -5.336530908113605, 39.43174971325708 -4.3539532140473645 C43.00872839549896 -3.3713755199811235, 45.746529372449224 -1.1607700445265636, 47.34455679579433 0.27038426128043924 C48.94258421913944 1.701538567087442, 48.740688010405506 3.5725412275422843, 49.01991425332774 4.232972620794653" stroke="#000000" stroke-width="1" fill="none"></path></g></g><g><g transform="translate(883.6190606386319 140.2357676799229) rotate(355.3943801749595 -5.246540885767672 84.66846974001959)"><path d="M1.123398270830512 -0.44206874035298827 C-0.8010918836962144 27.743023602210435, -9.542855442648609 141.47163541984037, -11.616480042365765 169.98792397517235 M0.2540436336770653 -1.7197587743774057 C-1.273647625252203 26.514822953075612, -7.180585841310997 142.12756158769355, -9.272112435018098 171.05669825441657" stroke="#000000" stroke-width="1" fill="none"></path></g><g transform="translate(883.6190606386319 140.2357676799229) rotate(355.3943801749595 -5.246540885767672 84.66846974001959)"><path d="M8.519257233094745 27.267625610672624 C5.16446448942283 19.34499197224472, 3.8846981749718275 11.533931285370443, 2.7095020137727257 -1.6282931767404079 M10.23899912050771 28.92827292192051 C6.804126237832128 20.68081060246121, 5.260610971423075 12.229950192930545, 0.5608932463452219 -1.1221056697890162" stroke="#000000" stroke-width="1" fill="none"></path></g><g transform="translate(883.6190606386319 140.2357676799229) rotate(355.3943801749595 -5.246540885767672 84.66846974001959)"><path d="M-11.944963594909886 25.739336276645496 C-9.267904781905921 18.074754195319606, -4.526993498767826 10.713323984647957, 2.7095020137727257 -1.6282931767404079 M-10.225221707496921 27.39998358789338 C-7.780547528756154 19.418135697784713, -3.4301306887696645 11.407440279112516, 0.5608932463452219 -1.1221056697890162" stroke="#000000" stroke-width="1" fill="none"></path></g><g transform="translate(883.6190606386319 140.2357676799229) rotate(355.3943801749595 -5.246540885767672 84.66846974001959)"><path d="M-18.55830617728283 141.13375545284904 C-16.58377818970329 150.01076450096886, -12.955599958202509 159.15551807699373, -7.686008692075884 169.87047381802915 M-16.838564289869865 142.79440276409693 C-16.011281209370907 151.00351563768743, -12.750172500003949 159.1515207967431, -9.834617459503388 170.37666132498055" stroke="#000000" stroke-width="1" fill="none"></path></g><g transform="translate(883.6190606386319 140.2357676799229) rotate(355.3943801749595 -5.246540885767672 84.66846974001959)"><path d="M1.925877000366155 142.36592505576968 C-2.1351545387397666 151.07218935468703, -4.533526929377085 159.8544323818332, -7.686008692075884 169.87047381802915 M3.6456188877791202 144.02657236701756 C-1.4151817117022003 152.0555269859412, -4.053754496136092 159.8486530589952, -9.834617459503388 170.37666132498055" stroke="#000000" stroke-width="1" fill="none"></path></g></g><g transform="translate(821.668212890625 313.0677265446154) rotate(0 56.64373779296875 23.653045654296875)"><path d="M12.868549412116398 -0.33471701107919216 M12.578384542837728 1.1168780382722616 C34.495409555152875 0.5627751146025196, 53.94798182393774 1.710504809445812, 101.9443089608104 0.08722776733338833 M12.315030368976284 0.74755157250911 C31.376924470006244 -0.33714892346341496, 53.54932558244978 -0.09432952482182866, 101.34205723088245 0.7939724149182439 M101.46095275878916 0 C109.23581914665807 -0.8135173674672842, 111.99063057266184 3.9365384423484366, 112.97235662303873 12.71906473673879 M101.41364026628445 0.17867430485785007 C111.05456426587585 2.2321323941461744, 114.75027341591203 4.6562249720406985, 114.19295084821069 10.822908012103278 M114.49854614771911 11.413610583171238 C113.74910290261106 19.316742784717462, 111.47588397284345 28.00686801299708, 113.99450215138503 36.35890919528899 M113.38015041034677 11.332971883006383 C113.13344530321972 17.791519794917367, 113.8162626729192 23.57472610068821, 113.04081565421083 34.95800409931687 M113.28747558593759 35.479568481445284 C111.55572724901148 42.139945272977116, 111.00447915556539 45.479863906279164, 100.59237331710766 48.107861900702076 M111.46453846059748 36.481591189280124 C112.84410622762525 45.281621937981456, 108.47877558019643 47.04257727069776, 102.1948021386751 46.34950778288763 M101.83482255972932 46.37525249086316 C78.28283748272895 47.62632882766036, 55.92142895907332 46.411105336468495, 11.548944914713491 48.34268016181882 M102.37088004034023 46.40589905995871 C70.09976518258347 48.15979834264619, 36.36359581280277 47.999194431961605, 12.580100658349682 47.26158122438933 M11.826522827148427 47.30609130859371 C4.139574255173401 48.000499689951496, -0.2130234781652689 44.50760251718259, -1.0925492588430643 37.034294867888065 M10.668535714969028 46.11019929684694 C2.4081801260200604 46.074491329025435, -0.16261374009773144 41.43606877528748, 1.261206117738038 34.16007781429214 M1.6050055269151926 34.701358204707475 C-1.1259799607912675 28.87546808791572, -0.98631894671122 24.552635450982365, 1.3786638621240854 13.309811418876041 M0.07429811637848616 35.92394418735054 C0.27753886483293044 28.759025842829796, -0.29106664754766953 20.715030540606413, -0.6013365359976888 12.710593682713796 M0 11.826522827148427 C1.0554041918367147 5.357918425773577, 3.3280416981627505 -0.7936510797590017, 13.795060819014896 -0.7025946136564016 M1.6687289532274008 11.041824067011465 C0.8120711986906826 2.2310062736583216, 1.7515469426599606 1.0280060450546444, 13.903594670165319 0.7349342684261502" stroke="#000000" stroke-width="1" fill="none"></path></g><g transform="translate(835.3624877929688 310.4828571598498) rotate(0 44 25)"><text x="44" y="18" font-family="Virgil, Segoe UI Emoji" font-size="20px" fill="#000000" text-anchor="middle" style="white-space: pre;" direction="ltr">API</text><text x="44" y="43" font-family="Virgil, Segoe UI Emoji" font-size="20px" fill="#000000" text-anchor="middle" style="white-space: pre;" direction="ltr">Gateway</text></g><g transform="translate(660.6984252929688 424.1050190250842) rotate(0 54.372894287109375 41.600433349609375)"><path d="M19.10481598414481 1.3132611569017172 M18.819782024249438 -1.5610169526189566 C42.535794546684336 1.4966101975457335, 64.66148075991514 1.8969275684373046, 88.35685080848633 0.8442198280245066 M20.002222550101582 0.025606456212699413 C38.76155755218484 -0.9444119250855649, 56.0879215535967 -0.6705520367703641, 88.89975957293062 -0.40681168157607317 M87.94557189941405 0 C101.03122548696894 0.7449185308068991, 110.70818915404378 5.971794292951625, 110.33242585696279 21.368492012843493 M86.00818380154668 0.33912784419953823 C103.9728287726951 0.2771238182671367, 108.98962014717979 5.527263961701345, 106.49198103351517 21.85641937302426 M110.02326810918747 22.01484915055335 C108.6477967586139 34.863323926581145, 108.29897875448258 52.69491675985992, 107.66413099132477 61.70746614970268 M108.69626255054025 20.1295276908204 C108.09745528424122 32.09157842985466, 108.24708735072949 42.04923749866186, 108.22679327148943 61.978391977958395 M108.74578857421874 62.40065002441408 C108.74572023190557 76.96850934190056, 102.11009107468027 81.86656964384021, 86.30925097502767 84.35352564416827 M108.89262839592992 62.505683844909086 C110.46842961413785 75.67309907622015, 101.56115641597036 81.84165905760602, 85.74625338120384 83.29667417453604 M86.32193089090286 84.42574485577644 C67.39037388124888 82.92327569861429, 49.0064300155158 82.63906090397852, 19.82610935531557 82.06644763983788 M87.3378619076684 82.43185514491053 C65.30899320927176 82.2762601744485, 45.05748065864125 83.10326261037112, 21.506391209550205 82.95183339994402 M20.80021667480469 83.20086669921876 C6.917284373814862 85.01517195068301, -1.6712065692991018 77.45515450400612, 1.827221417799592 64.20570862852038 M19.946544731035832 83.60246903263034 C8.83224143885697 82.30765859829263, -0.24823980526998657 76.48382095343744, 2.008171526622027 63.04841159628705 M0.41239512525498867 61.12574120797218 C-1.400664820247362 47.04674437629075, -0.5972992916638353 30.379332398735286, -0.9042538944631815 19.560477042570714 M-0.7745479820296168 62.195009472779944 C-0.75428717159024 48.81771843529292, -0.5898655238031458 36.03625545414134, -0.9301172671839595 21.109612437896434 M0 20.80021667480469 C-0.7926949616521597 6.754911646867793, 6.853808347756665 1.7630513962358236, 22.485977077856663 1.3404157217592 M0.25394769944250584 19.109616464003924 C-1.5094804634340107 6.801955135135602, 5.0900305231722704 0.8436808829195797, 21.993024776410316 -0.16012739492580286" stroke="#000000" stroke-width="1" fill="none"></path></g><g transform="translate(663.0025634765625 436.9313740055529) rotate(0 50.5 25)"><text x="50.5" y="18" font-family="Virgil, Segoe UI Emoji" font-size="20px" fill="#000000" text-anchor="middle" style="white-space: pre;" direction="ltr">application</text><text x="50.5" y="43" font-family="Virgil, Segoe UI Emoji" font-size="20px" fill="#000000" text-anchor="middle" style="white-space: pre;" direction="ltr">gateway</text></g><g transform="translate(906.0074462890625 445.2682880680529) rotate(0 57.96319580078125 60.582275390625)"><path d="M57.74969715438783 1.631339455023408 C69.1289415176148 11.41444815035349, 83.26841262414689 26.811903189321963, 114.13084972463548 60.39805885590613 M58.40649763960391 0.04756132047623396 C74.3519633383147 18.165195878125978, 90.03594046026124 34.957327751253054, 116.9018902303651 61.29431093018502 M114.51632345281541 59.60039182938635 C94.5849237625907 83.04210290873407, 72.28081050573505 105.96629139870433, 57.92873174510896 120.97461893595755 M116.82618446368724 60.90124762337655 C98.48503045398803 78.9772610741386, 82.566504588881 96.51315419074126, 57.33965585846454 121.69249472301453 M57.840832060202956 121.96892883814871 C38.4299952155294 101.43537191014546, 18.47002080868353 81.40670935509345, 1.4347035940736532 59.57718952931464 M57.36428425926715 120.5300298659131 C40.53021687853894 103.10301997305505, 25.400409640444423 87.54934866466851, 0.3708405615761876 61.84474784415215 M-1.1085030976682901 60.44697245396674 C23.00226784755476 35.95134220119566, 44.42265361824073 16.066073549408465, 56.945457166060805 0.16286292113363743 M0.8578636767342687 60.93753963988274 C22.62505748308264 37.92132451675832, 43.28990977871232 15.255162896979591, 58.97557739634067 0.09649876039475203" stroke="#000000" stroke-width="1" fill="none"></path></g><g transform="translate(916.96630859375 494.4260639469592) rotate(0 45 12.5)"><text x="45" y="18" font-family="Virgil, Segoe UI Emoji" font-size="20px" fill="#000000" text-anchor="middle" style="white-space: pre;" direction="ltr">Extension</text></g><g><g transform="translate(778.098388671875 460.9439505026943) rotate(0 64.96121207835597 24.980577035890008)"><path d="M0.3923110876232385 -1.1514893386512994 C22.142019739323224 7.400595134958951, 109.18843097623868 42.580445335136496, 130.78328847742597 51.11264341043132 M-0.8608643207140267 0.8583748132176696 C20.745969064314778 9.10846180226314, 108.43148326980379 41.09770801725029, 130.07576334443831 49.5069489636627" stroke="#000000" stroke-width="1" fill="none"></path></g><g transform="translate(778.098388671875 460.9439505026943) rotate(0 64.96121207835597 24.980577035890008)"><path d="M98.15805298873988 49.97671916036489 C111.42972811017103 48.604039698626345, 119.35694663367315 49.44552789506037, 130.14875575308645 48.92350681770416 M100.16794695092199 49.56816765273543 C110.52443938436885 48.94065580160511, 120.19008136030823 48.978901925672645, 131.02268451699013 50.338869212119" stroke="#000000" stroke-width="1" fill="none"></path></g><g transform="translate(778.098388671875 460.9439505026943) rotate(0 64.96121207835597 24.980577035890008)"><path d="M105.36522540354315 30.762748509582202 C116.27155507597463 35.63421270990807, 121.8654295679923 42.696282454667, 130.14875575308645 48.92350681770416 M107.37511936572525 30.35419700195275 C115.35582988616584 36.06460980922477, 122.61997987498937 42.50511661235686, 131.02268451699013 50.338869212119" stroke="#000000" stroke-width="1" fill="none"></path></g></g><g><g transform="translate(877.9522705078125 365.8729023258654) rotate(0 39.056332559119824 41.905492038894465)"><path d="M1.0127857949584722 0.18310844041407104 C5.410364769523342 11.57320551412801, 13.634791519865395 54.33510695236424, 26.47054480575025 68.40081348754465 C39.30629809163511 82.46652002272506, 69.30868797165651 81.82671362099548, 78.02730551026761 84.57734765149652 M0.08535960797220477 -0.7663635737076402 C4.284882217285534 10.31492644286404, 12.49665316466242 53.01856294965993, 25.326951136626302 66.89081120546908 C38.157249108590186 80.76305946127823, 68.08313343131294 79.82349669591834, 77.0671474397555 82.46712596114725" stroke="#000000" stroke-width="1" fill="none"></path></g><g transform="translate(877.9522705078125 365.8729023258654) rotate(0 39.056332559119824 41.905492038894465)"><path d="M19.379705876691435 23.51589165518592 C15.460610807583766 16.315901816168207, 8.706803643109305 10.218258572840197, 2.295669087022543 -1.757500334829092 M20.043706483787094 23.48919676973085 C12.259388740275792 16.496748252618836, 7.018904904569105 8.266822388840342, 1.149665787629783 -0.4827653227373958" stroke="#000000" stroke-width="1" fill="none"></path></g><g transform="translate(877.9522705078125 365.8729023258654) rotate(0 39.056332559119824 41.905492038894465)"><path d="M-0.24299716564601792 29.521682835212065 C1.8608143983980754 20.311765817070025, 1.1329283260786456 12.36980868545075, 2.295669087022543 -1.757500334829092 M0.42100344144964086 29.494987949756993 C-0.6099874907079929 20.506216249523526, 0.8936655263552453 10.212156940935479, 1.149665787629783 -0.4827653227373958" stroke="#000000" stroke-width="1" fill="none"></path></g><g transform="translate(877.9522705078125 365.8729023258654) rotate(0 39.056332559119824 41.905492038894465)"><path d="M47.97067611663115 87.8081209880111 C58.636108686875936 85.73263042238534, 66.45779862668167 85.1600718574109, 78.35003073181957 80.52651718590408 M48.634676723726805 87.78142610255603 C57.13554554145257 87.13660392868157, 68.20777899246742 85.09028495654806, 77.20402743242681 81.80125219799578" stroke="#000000" stroke-width="1" fill="none"></path></g><g transform="translate(877.9522705078125 365.8729023258654) rotate(0 39.056332559119824 41.905492038894465)"><path d="M51.01719576517089 67.5143110840798 C60.75726089019686 71.69654357627795, 67.64339740659341 77.35599580392656, 78.35003073181957 80.52651718590408 M51.68119637226655 67.48761619862472 C59.10395205297918 73.8070560668734, 69.12912560658465 78.73552700828624, 77.20402743242681 81.80125219799578" stroke="#000000" stroke-width="1" fill="none"></path></g></g><g transform="translate(888.4986572265625 204.10623972820918) rotate(0 103.5 12.5)"><text x="103.5" y="18" font-family="Virgil, Segoe UI Emoji" font-size="20px" fill="#000000" text-anchor="middle" style="white-space: pre;" direction="ltr">Websocket connection</text></g><g transform="translate(900.142822265625 389.4788593571154) rotate(0 83 10)"><text x="83" y="14" font-family="Virgil, Segoe UI Emoji" font-size="16px" fill="#000000" text-anchor="middle" style="white-space: pre;" direction="ltr">Websocket connection</text></g></svg>