<svg version="1.1" xmlns="http://www.w3.org/2000/svg" viewBox="0 0 1032.6170419755915 817.4763031005859" width="3097.8511259267743" height="2452.428909301758">
  <!-- svg-source:excalidraw -->
  
  <defs>
    <style>
      @font-face {
        font-family: "Virgil";
        src: url("https://excalidraw.com/Virgil.woff2");
      }
      @font-face {
        font-family: "Cascadia";
        src: url("https://excalidraw.com/Cascadia.woff2");
      }
    </style>
  </defs>
  <rect x="0" y="0" width="1032.6170419755915" height="817.4763031005859" fill="#ffffff"></rect><g stroke-opacity="0.8" fill-opacity="0.8" stroke-linecap="round" transform="translate(35.92357566335414 130.75656696785427) rotate(0 13.871900211800579 14.34480590083922)"><path d="M13.87 0 C16.7 -0.18, 20.51 1.38, 22.79 3.36 C25.07 5.33, 27.02 8.83, 27.53 11.85 C28.05 14.88, 27.37 18.86, 25.89 21.52 C24.4 24.18, 21.41 26.77, 18.62 27.82 C15.82 28.88, 11.92 28.88, 9.13 27.82 C6.33 26.77, 3.34 24.18, 1.86 21.52 C0.37 18.86, -0.31 14.88, 0.21 11.85 C0.73 8.83, 2.68 5.33, 4.96 3.36 C7.23 1.38, 12.39 0.51, 13.87 0 C15.36 -0.51, 13.87 0.05, 13.87 0.29 M13.87 0 C16.7 -0.18, 20.51 1.38, 22.79 3.36 C25.07 5.33, 27.02 8.83, 27.53 11.85 C28.05 14.88, 27.37 18.86, 25.89 21.52 C24.4 24.18, 21.41 26.77, 18.62 27.82 C15.82 28.88, 11.92 28.88, 9.13 27.82 C6.33 26.77, 3.34 24.18, 1.86 21.52 C0.37 18.86, -0.31 14.88, 0.21 11.85 C0.73 8.83, 2.68 5.33, 4.96 3.36 C7.23 1.38, 12.39 0.51, 13.87 0 C15.36 -0.51, 13.87 0.05, 13.87 0.29" stroke="#1864ab" stroke-width="2" fill="none"></path></g><g stroke-opacity="0.8" fill-opacity="0.8" stroke-linecap="round" transform="translate(28.63822201510112 167.35041527050157) rotate(0 21.25458239075786 12.765142776956623)"><path d="M6.38 0 M6.38 0 C13.93 0, 21.47 0, 36.13 0 M6.38 0 C12.99 0, 19.59 0, 36.13 0 M36.13 0 C40.38 0, 42.51 2.13, 42.51 6.38 M36.13 0 C40.38 0, 42.51 2.13, 42.51 6.38 M42.51 6.38 C42.51 9.98, 42.51 13.59, 42.51 19.15 M42.51 6.38 C42.51 11.15, 42.51 15.91, 42.51 19.15 M42.51 19.15 C42.51 23.4, 40.38 25.53, 36.13 25.53 M42.51 19.15 C42.51 23.4, 40.38 25.53, 36.13 25.53 M36.13 25.53 C28.87 25.53, 21.62 25.53, 6.38 25.53 M36.13 25.53 C28.88 25.53, 21.64 25.53, 6.38 25.53 M6.38 25.53 C2.13 25.53, 0 23.4, 0 19.15 M6.38 25.53 C2.13 25.53, 0 23.4, 0 19.15 M0 19.15 C0 14.5, 0 9.85, 0 6.38 M0 19.15 C0 15.98, 0 12.81, 0 6.38 M0 6.38 C0 2.13, 2.13 0, 6.38 0 M0 6.38 C0 2.13, 2.13 0, 6.38 0" stroke="#1864ab" stroke-width="2" fill="none"></path></g><g stroke-opacity="0.8" fill-opacity="0.8" stroke-linecap="round" transform="translate(47.96803134448925 177.53904736943036) rotate(0 2.106868225322927 2.106868225322927)"><path d="M2.11 0 C2.54 -0.03, 3.12 0.2, 3.46 0.49 C3.81 0.78, 4.1 1.3, 4.18 1.74 C4.26 2.19, 4.16 2.77, 3.93 3.16 C3.71 3.55, 3.25 3.93, 2.83 4.09 C2.4 4.24, 1.81 4.24, 1.39 4.09 C0.96 3.93, 0.51 3.55, 0.28 3.16 C0.06 2.77, -0.05 2.19, 0.03 1.74 C0.11 1.3, 0.41 0.78, 0.75 0.49 C1.1 0.2, 1.88 0.08, 2.11 0 C2.33 -0.08, 2.11 0.01, 2.11 0.04 M2.11 0 C2.54 -0.03, 3.12 0.2, 3.46 0.49 C3.81 0.78, 4.1 1.3, 4.18 1.74 C4.26 2.19, 4.16 2.77, 3.93 3.16 C3.71 3.55, 3.25 3.93, 2.83 4.09 C2.4 4.24, 1.81 4.24, 1.39 4.09 C0.96 3.93, 0.51 3.55, 0.28 3.16 C0.06 2.77, -0.05 2.19, 0.03 1.74 C0.11 1.3, 0.41 0.78, 0.75 0.49 C1.1 0.2, 1.88 0.08, 2.11 0 C2.33 -0.08, 2.11 0.01, 2.11 0.04" stroke="#1864ab" stroke-width="2" fill="none"></path></g><g stroke-linecap="round"><g stroke-opacity="0.8" fill-opacity="0.8" transform="translate(37.48708187311564 134.30161029158444) rotate(0 0.2066333820236821 6.397429365952576)"><path d="M0 0 C0.07 2.13, 0.34 10.66, 0.41 12.79 M0 0 C0.07 2.13, 0.34 10.66, 0.41 12.79" stroke="#1864ab" stroke-width="2" fill="none"></path></g></g><g stroke-linecap="round"><g stroke-opacity="0.8" fill-opacity="0.8" transform="translate(42.09837476417488 132.80464301993368) rotate(0 -0.1824048525913895 5.98063217313063)"><path d="M0 0 C-0.06 1.99, -0.3 9.97, -0.36 11.96 M0 0 C-0.06 1.99, -0.3 9.97, -0.36 11.96" stroke="#1864ab" stroke-width="2" fill="none"></path></g></g><g stroke-linecap="round"><g stroke-opacity="0.8" fill-opacity="0.8" transform="translate(43.824043733462645 132.15638480595658) rotate(0 0.003120221436461179 6.766682546023645)"><path d="M0 0 C0 2.26, 0.01 11.28, 0.01 13.53 M0 0 C0 2.26, 0.01 11.28, 0.01 13.53" stroke="#1864ab" stroke-width="2" fill="none"></path></g></g><g stroke-linecap="round"><g stroke-opacity="0.8" fill-opacity="0.8" transform="translate(45.793884295268356 129.14805854533495) rotate(0 -0.06196671250961572 8.675339751329744)"><path d="M0 0 C-0.02 2.89, -0.1 14.46, -0.12 17.35 M0 0 C-0.02 2.89, -0.1 14.46, -0.12 17.35" stroke="#1864ab" stroke-width="2" fill="none"></path></g></g><g stroke-linecap="round"><g stroke-opacity="0.8" fill-opacity="0.8" transform="translate(48.83778568010149 131.01522260960974) rotate(0 -0.06196671250961572 8.675339751329744)"><path d="M0 0 C-0.02 2.89, -0.1 14.46, -0.12 17.35 M0 0 C-0.02 2.89, -0.1 14.46, -0.12 17.35" stroke="#1864ab" stroke-width="2" fill="none"></path></g></g><g stroke-linecap="round"><g stroke-opacity="0.8" fill-opacity="0.8" transform="translate(51.92477810722295 131.1166178478686) rotate(0 -0.08862236851442162 7.347706462089633)"><path d="M0 0 C-0.03 2.45, -0.15 12.25, -0.18 14.7 M0 0 C-0.03 2.45, -0.15 12.25, -0.18 14.7" stroke="#1864ab" stroke-width="2" fill="none"></path></g></g><g stroke-linecap="round"><g stroke-opacity="0.8" fill-opacity="0.8" transform="translate(54.63754165607867 130.91623571933928) rotate(0 -0.09939856818422754 7.466381638979584)"><path d="M0 0 C-0.03 2.49, -0.17 12.44, -0.2 14.93 M0 0 C-0.03 2.49, -0.17 12.44, -0.2 14.93" stroke="#1864ab" stroke-width="2" fill="none"></path></g></g><g stroke-linecap="round"><g stroke-opacity="0.8" fill-opacity="0.8" transform="translate(57.468288426395986 132.78321013665402) rotate(0 0.31594039564134846 6.9977027437755055)"><path d="M0 0 C0.11 2.33, 0.53 11.66, 0.63 14 M0 0 C0.11 2.33, 0.53 11.66, 0.63 14" stroke="#1864ab" stroke-width="2" fill="none"></path></g></g><g stroke-linecap="round"><g stroke-opacity="0.8" fill-opacity="0.8" transform="translate(60.37915692730485 135.34042999158532) rotate(0 -0.11879984949786149 6.582709250713975)"><path d="M0 0 C-0.04 2.19, -0.2 10.97, -0.24 13.17 M0 0 C-0.04 2.19, -0.2 10.97, -0.24 13.17" stroke="#1864ab" stroke-width="2" fill="none"></path></g></g><g stroke-linecap="round"><g stroke-opacity="0.8" fill-opacity="0.8" transform="translate(64.989015921249 163.996880846522) rotate(0 -16.365100342157604 -2.93554192170717)"><path d="M0 0 C-0.46 -0.46, -1.84 -1.69, -2.73 -2.73 C-3.63 -3.77, -4.12 -6, -5.36 -6.23 C-6.6 -6.47, -8.26 -4.74, -10.17 -4.16 C-12.08 -3.57, -14.71 -2.73, -16.84 -2.73 C-18.97 -2.73, -21.2 -3.63, -22.96 -4.16 C-24.73 -4.68, -26.35 -6.12, -27.45 -5.91 C-28.54 -5.69, -28.64 -3.84, -29.53 -2.84 C-30.41 -1.84, -32.81 -0.44, -32.73 0.08 C-32.65 0.61, -30.32 0.27, -29.06 0.29 C-27.81 0.32, -25.85 0.24, -25.2 0.23 M0 0 C-0.46 -0.46, -1.84 -1.69, -2.73 -2.73 C-3.63 -3.77, -4.12 -6, -5.36 -6.23 C-6.6 -6.47, -8.26 -4.74, -10.17 -4.16 C-12.08 -3.57, -14.71 -2.73, -16.84 -2.73 C-18.97 -2.73, -21.2 -3.63, -22.96 -4.16 C-24.73 -4.68, -26.35 -6.12, -27.45 -5.91 C-28.54 -5.69, -28.64 -3.84, -29.53 -2.84 C-30.41 -1.84, -32.81 -0.44, -32.73 0.08 C-32.65 0.61, -30.32 0.27, -29.06 0.29 C-27.81 0.32, -25.85 0.24, -25.2 0.23" stroke="#1864ab" stroke-width="2" fill="none"></path></g></g><g stroke-linecap="round"><g stroke-opacity="0.8" fill-opacity="0.8" transform="translate(25.84161483927909 162.2478640311682) rotate(0 -5.268680534986032 -5.818033783334698)"><path d="M0 0 C-0.28 -0.26, -1.64 -0.67, -1.68 -1.55 C-1.73 -2.43, -0.35 -3.77, -0.28 -5.27 C-0.21 -6.76, -0.16 -9.5, -1.26 -10.53 C-2.36 -11.57, -5.38 -11.87, -6.88 -11.46 C-8.38 -11.06, -9.75 -9.33, -10.26 -8.12 C-10.77 -6.9, -10.52 -5.12, -9.96 -4.18 C-9.39 -3.24, -8.02 -2.56, -6.88 -2.48 C-5.73 -2.4, -3.63 -2.94, -3.09 -3.72 C-2.55 -4.49, -3.19 -6.26, -3.65 -7.13 C-4.11 -7.99, -5.21 -9.14, -5.85 -8.92 C-6.5 -8.71, -7.61 -6.44, -7.53 -5.84 C-7.45 -5.25, -5.73 -5.44, -5.37 -5.36 M0 0 C-0.28 -0.26, -1.64 -0.67, -1.68 -1.55 C-1.73 -2.43, -0.35 -3.77, -0.28 -5.27 C-0.21 -6.76, -0.16 -9.5, -1.26 -10.53 C-2.36 -11.57, -5.38 -11.87, -6.88 -11.46 C-8.38 -11.06, -9.75 -9.33, -10.26 -8.12 C-10.77 -6.9, -10.52 -5.12, -9.96 -4.18 C-9.39 -3.24, -8.02 -2.56, -6.88 -2.48 C-5.73 -2.4, -3.63 -2.94, -3.09 -3.72 C-2.55 -4.49, -3.19 -6.26, -3.65 -7.13 C-4.11 -7.99, -5.21 -9.14, -5.85 -8.92 C-6.5 -8.71, -7.61 -6.44, -7.53 -5.84 C-7.45 -5.25, -5.73 -5.44, -5.37 -5.36" stroke="#1864ab" stroke-width="2" fill="none"></path></g></g><g stroke-linecap="round"><g stroke-opacity="0.8" fill-opacity="0.8" transform="translate(58.54221621366753 178.48851536232144) rotate(348.6802301431761 4.114056224183884 -2.6217870535595296)"><path d="M0 0 C0.92 -1.01, 4.28 -4.87, 5.53 -6.07 C6.78 -7.27, 7.04 -7.33, 7.52 -7.21 C8 -7.1, 8.59 -6.21, 8.41 -5.36 C8.22 -4.52, 7.55 -3.32, 6.42 -2.16 C5.3 -0.99, 2.75 1.02, 1.67 1.65 C0.58 2.29, 0.17 1.94, -0.11 1.66 C-0.38 1.39, -0.02 0.28, 0 0 M0 0 C0.92 -1.01, 4.28 -4.87, 5.53 -6.07 C6.78 -7.27, 7.04 -7.33, 7.52 -7.21 C8 -7.1, 8.59 -6.21, 8.41 -5.36 C8.22 -4.52, 7.55 -3.32, 6.42 -2.16 C5.3 -0.99, 2.75 1.02, 1.67 1.65 C0.58 2.29, 0.17 1.94, -0.11 1.66 C-0.38 1.39, -0.02 0.28, 0 0" stroke="#1864ab" stroke-width="2" fill="none"></path></g></g><g stroke-linecap="round"><g stroke-opacity="0.8" fill-opacity="0.8" transform="translate(60.11082205308088 175.93884977196524) rotate(348.6802301431761 -0.2289552587517676 -2.5716834081135858)"><path d="M0 0 C-0.34 -0.33, -1.65 -1.3, -2.05 -2 C-2.44 -2.7, -2.55 -3.7, -2.38 -4.21 C-2.22 -4.73, -1.76 -5.34, -1.03 -5.09 C-0.3 -4.83, 1.5 -3.08, 2 -2.68 M0 0 C-0.34 -0.33, -1.65 -1.3, -2.05 -2 C-2.44 -2.7, -2.55 -3.7, -2.38 -4.21 C-2.22 -4.73, -1.76 -5.34, -1.03 -5.09 C-0.3 -4.83, 1.5 -3.08, 2 -2.68" stroke="#1864ab" stroke-width="2" fill="none"></path></g></g><g stroke-linecap="round"><g stroke-opacity="0.8" fill-opacity="0.8" transform="translate(65.06235181972028 180.41952701855507) rotate(168.6802301431761 0.10189761297706923 -2.3055091586389267)"><path d="M0 0 C-0.3 -0.36, -1.43 -1.44, -1.83 -2.15 C-2.23 -2.85, -2.53 -3.83, -2.38 -4.21 C-2.24 -4.59, -1.81 -4.78, -0.98 -4.41 C-0.14 -4.04, 2.02 -2.39, 2.62 -1.99 M0 0 C-0.3 -0.36, -1.43 -1.44, -1.83 -2.15 C-2.23 -2.85, -2.53 -3.83, -2.38 -4.21 C-2.24 -4.59, -1.81 -4.78, -0.98 -4.41 C-0.14 -4.04, 2.02 -2.39, 2.62 -1.99" stroke="#1864ab" stroke-width="2" fill="none"></path></g></g><g stroke-linecap="round"><g stroke-opacity="0.8" fill-opacity="0.8" transform="translate(71.33072881555637 161.39226825751757) rotate(0 5.720004231646101 -7.722005712722137)"><path d="M0 0 C0.07 -1.24, -0.19 -6.84, 0.43 -7.44 C1.05 -8.03, 3.24 -2.91, 3.72 -3.58 C4.19 -4.24, 2.6 -10.34, 3.29 -11.44 C3.98 -12.54, 6.51 -9.49, 7.87 -10.15 C9.22 -10.82, 10.84 -14.56, 11.44 -15.44 M0 0 C0.07 -1.24, -0.19 -6.84, 0.43 -7.44 C1.05 -8.03, 3.24 -2.91, 3.72 -3.58 C4.19 -4.24, 2.6 -10.34, 3.29 -11.44 C3.98 -12.54, 6.51 -9.49, 7.87 -10.15 C9.22 -10.82, 10.84 -14.56, 11.44 -15.44" stroke="#1864ab" stroke-width="2" fill="none"></path></g></g><g stroke-linecap="round"><g stroke-opacity="0.8" fill-opacity="0.8" transform="translate(33.97627483257003 176.7371295962855) rotate(0 4.004002962152242 4.862003596899086)"><path d="M0 0 C0.31 1.02, 1.1 5.7, 1.86 6.15 C2.62 6.6, 3.55 2.12, 4.58 2.72 C5.6 3.31, 7.44 8.56, 8.01 9.72 M0 0 C0.31 1.02, 1.1 5.7, 1.86 6.15 C2.62 6.6, 3.55 2.12, 4.58 2.72 C5.6 3.31, 7.44 8.56, 8.01 9.72" stroke="#1864ab" stroke-width="2" fill="none"></path></g></g><g stroke-linecap="round"><g stroke-opacity="0.8" fill-opacity="0.8" transform="translate(61.291317019215626 176.88413162927202) rotate(0 0.5112253782033633 0.32532524067485724)"><path d="M0 0 C0.17 0.11, 0.85 0.54, 1.02 0.65 M0 0 C0.17 0.11, 0.85 0.54, 1.02 0.65" stroke="#1864ab" stroke-width="2" fill="none"></path></g></g><g stroke-linecap="round"><g stroke-opacity="0.8" fill-opacity="0.8" transform="translate(64.45161935719915 175.86168087286455) rotate(0 -0.697125515731841 -0.6506504813497429)"><path d="M0 0 C-0.23 -0.22, -1.16 -1.08, -1.39 -1.3 M0 0 C-0.23 -0.22, -1.16 -1.08, -1.39 -1.3" stroke="#1864ab" stroke-width="2" fill="none"></path></g></g><g stroke-linecap="round"><g stroke-opacity="0.8" fill-opacity="0.8" transform="translate(34.9209397471069 142.63035551518192) rotate(0 -3.047272897473732 2.569401698700119)"><path d="M0 0 C0.02 -0.54, 0.7 -2.78, 0.11 -3.26 C-0.49 -3.73, -2.5 -3.61, -3.57 -2.84 C-4.64 -2.07, -5.96 -0.04, -6.31 1.37 C-6.66 2.77, -6.31 4.5, -5.67 5.57 C-5.04 6.64, -3.49 7.36, -2.52 7.78 C-1.56 8.2, -0.32 9.39, 0.11 8.09 C0.53 6.8, 0.02 1.35, 0 0 M0 0 C0.02 -0.54, 0.7 -2.78, 0.11 -3.26 C-0.49 -3.73, -2.5 -3.61, -3.57 -2.84 C-4.64 -2.07, -5.96 -0.04, -6.31 1.37 C-6.66 2.77, -6.31 4.5, -5.67 5.57 C-5.04 6.64, -3.49 7.36, -2.52 7.78 C-1.56 8.2, -0.32 9.39, 0.11 8.09 C0.53 6.8, 0.02 1.35, 0 0" stroke="#1864ab" stroke-width="2" fill="none"></path></g></g><g stroke-linecap="round"><g stroke-opacity="0.8" fill-opacity="0.8" transform="translate(63.496851084422076 141.57220848915108) rotate(0 2.976788659887262 2.569401698700119)"><path d="M0 0 C-0.02 -0.54, -0.68 -2.78, -0.1 -3.26 C0.48 -3.73, 2.45 -3.61, 3.49 -2.84 C4.53 -2.07, 5.82 -0.04, 6.16 1.37 C6.5 2.77, 6.16 4.5, 5.54 5.57 C4.93 6.64, 3.4 7.36, 2.46 7.78 C1.52 8.2, 0.31 9.39, -0.1 8.09 C-0.51 6.8, -0.02 1.35, 0 0 M0 0 C-0.02 -0.54, -0.68 -2.78, -0.1 -3.26 C0.48 -3.73, 2.45 -3.61, 3.49 -2.84 C4.53 -2.07, 5.82 -0.04, 6.16 1.37 C6.5 2.77, 6.16 4.5, 5.54 5.57 C4.93 6.64, 3.4 7.36, 2.46 7.78 C1.52 8.2, 0.31 9.39, -0.1 8.09 C-0.51 6.8, -0.02 1.35, 0 0" stroke="#1864ab" stroke-width="2" fill="none"></path></g></g><g stroke-linecap="round"><g stroke-opacity="0.8" fill-opacity="0.8" transform="translate(33.26692457276141 138.5758309941295) rotate(0 15.658432814835493 -8.017201847985945)"><path d="M0 0 C0.21 -1.43, -0.04 -6.17, 1.25 -8.56 C2.54 -10.95, 5.25 -13.11, 7.72 -14.35 C10.19 -15.6, 13.29 -16.01, 16.07 -16.03 C18.86 -16.06, 22.16 -15.64, 24.43 -14.51 C26.7 -13.37, 28.56 -11.51, 29.71 -9.23 C30.85 -6.95, 31.05 -2.24, 31.32 -0.84 M0 0 C0.21 -1.43, -0.04 -6.17, 1.25 -8.56 C2.54 -10.95, 5.25 -13.11, 7.72 -14.35 C10.19 -15.6, 13.29 -16.01, 16.07 -16.03 C18.86 -16.06, 22.16 -15.64, 24.43 -14.51 C26.7 -13.37, 28.56 -11.51, 29.71 -9.23 C30.85 -6.95, 31.05 -2.24, 31.32 -0.84" stroke="#1864ab" stroke-width="2" fill="none"></path></g></g><g stroke-linecap="round"><g stroke-opacity="0.8" fill-opacity="0.8" transform="translate(32.9041012002121 150.20808195788663) rotate(0 5.885048574703262 2.999730267222816)"><path d="M0 0 C0.25 0.54, 0.73 2.3, 1.48 3.27 C2.23 4.24, 3.37 5.44, 4.49 5.82 C5.61 6.21, 6.98 5.89, 8.2 5.57 C9.41 5.25, 11.17 4.17, 11.77 3.89 M0 0 C0.25 0.54, 0.73 2.3, 1.48 3.27 C2.23 4.24, 3.37 5.44, 4.49 5.82 C5.61 6.21, 6.98 5.89, 8.2 5.57 C9.41 5.25, 11.17 4.17, 11.77 3.89" stroke="#1864ab" stroke-width="2" fill="none"></path></g></g><g stroke-opacity="0.8" fill-opacity="0.8" stroke-linecap="round" transform="translate(44.80872495090762 153.10368819373844) rotate(0 2.5221636748728145 1.2085367608765694)"><path d="M2.52 0 C3.04 -0.02, 3.73 0.12, 4.14 0.28 C4.56 0.45, 4.91 0.74, 5.01 1 C5.1 1.25, 4.98 1.59, 4.71 1.81 C4.44 2.04, 3.89 2.26, 3.38 2.34 C2.88 2.43, 2.17 2.43, 1.66 2.34 C1.15 2.26, 0.61 2.04, 0.34 1.81 C0.07 1.59, -0.06 1.25, 0.04 1 C0.13 0.74, 0.49 0.45, 0.9 0.28 C1.31 0.12, 2.25 0.04, 2.52 0 C2.79 -0.04, 2.52 0, 2.52 0.02 M2.52 0 C3.04 -0.02, 3.73 0.12, 4.14 0.28 C4.56 0.45, 4.91 0.74, 5.01 1 C5.1 1.25, 4.98 1.59, 4.71 1.81 C4.44 2.04, 3.89 2.26, 3.38 2.34 C2.88 2.43, 2.17 2.43, 1.66 2.34 C1.15 2.26, 0.61 2.04, 0.34 1.81 C0.07 1.59, -0.06 1.25, 0.04 1 C0.13 0.74, 0.49 0.45, 0.9 0.28 C1.31 0.12, 2.25 0.04, 2.52 0 C2.79 -0.04, 2.52 0, 2.52 0.02" stroke="#1864ab" stroke-width="2" fill="none"></path></g><g stroke-linecap="round"><g stroke-opacity="0.8" fill-opacity="0.8" transform="translate(59.668251464841205 177.3109152022414) rotate(0 -21.706592528908402 1.183807058449304)"><path d="M0 0 C0.99 0.09, 5.13 0.03, 5.92 0.51 C6.71 0.99, 6.02 2.48, 4.76 2.88 C3.5 3.27, 1.33 2.79, -1.62 2.88 C-4.58 2.96, -8.95 3.32, -13 3.39 C-17.04 3.46, -20.59 3.39, -25.88 3.29 C-31.16 3.19, -40.75 3.34, -44.71 2.78 C-48.68 2.21, -49.41 0.54, -49.67 -0.1 C-49.93 -0.74, -46.83 -0.89, -46.26 -1.05 M0 0 C0.99 0.09, 5.13 0.03, 5.92 0.51 C6.71 0.99, 6.02 2.48, 4.76 2.88 C3.5 3.27, 1.33 2.79, -1.62 2.88 C-4.58 2.96, -8.95 3.32, -13 3.39 C-17.04 3.46, -20.59 3.39, -25.88 3.29 C-31.16 3.19, -40.75 3.34, -44.71 2.78 C-48.68 2.21, -49.41 0.54, -49.67 -0.1 C-49.93 -0.74, -46.83 -0.89, -46.26 -1.05" stroke="#1864ab" stroke-width="2" fill="none"></path></g></g><g stroke-opacity="0.8" fill-opacity="0.8" stroke-linecap="round" transform="translate(341.4998544755915 10) rotate(0 212.21908569335938 158.30418395996094)"><path d="M79.15 0 M79.15 0 C170.63 0, 262.11 0, 345.29 0 M79.15 0 C183.6 0, 288.04 0, 345.29 0 M345.29 0 C398.05 0, 424.44 26.38, 424.44 79.15 M345.29 0 C398.05 0, 424.44 26.38, 424.44 79.15 M424.44 79.15 C424.44 122.1, 424.44 165.05, 424.44 237.46 M424.44 79.15 C424.44 121.46, 424.44 163.77, 424.44 237.46 M424.44 237.46 C424.44 290.22, 398.05 316.61, 345.29 316.61 M424.44 237.46 C424.44 290.22, 398.05 316.61, 345.29 316.61 M345.29 316.61 C277.55 316.61, 209.82 316.61, 79.15 316.61 M345.29 316.61 C284.19 316.61, 223.1 316.61, 79.15 316.61 M79.15 316.61 C26.38 316.61, 0 290.22, 0 237.46 M79.15 316.61 C26.38 316.61, 0 290.22, 0 237.46 M0 237.46 C0 203.79, 0 170.13, 0 79.15 M0 237.46 C0 189.87, 0 142.29, 0 79.15 M0 79.15 C0 26.38, 26.38 0, 79.15 0 M0 79.15 C0 26.38, 26.38 0, 79.15 0" stroke="#000000" stroke-width="1" fill="none"></path></g><g stroke-opacity="0.8" fill-opacity="0.8" stroke-linecap="round" transform="translate(341.8570016923884 101.37928771972656) rotate(0 42.82206726074219 57.82194519042969)"><path d="M21.41 0 M21.41 0 C33.13 0, 44.85 0, 64.23 0 M21.41 0 C33.4 0, 45.39 0, 64.23 0 M64.23 0 C78.51 0, 85.64 7.14, 85.64 21.41 M64.23 0 C78.51 0, 85.64 7.14, 85.64 21.41 M85.64 21.41 C85.64 42.74, 85.64 64.06, 85.64 94.23 M85.64 21.41 C85.64 43.75, 85.64 66.08, 85.64 94.23 M85.64 94.23 C85.64 108.51, 78.51 115.64, 64.23 115.64 M85.64 94.23 C85.64 108.51, 78.51 115.64, 64.23 115.64 M64.23 115.64 C54.29 115.64, 44.35 115.64, 21.41 115.64 M64.23 115.64 C54.59 115.64, 44.94 115.64, 21.41 115.64 M21.41 115.64 C7.14 115.64, 0 108.51, 0 94.23 M21.41 115.64 C7.14 115.64, 0 108.51, 0 94.23 M0 94.23 C0 70.69, 0 47.15, 0 21.41 M0 94.23 C0 69.16, 0 44.09, 0 21.41 M0 21.41 C0 7.14, 7.14 0, 21.41 0 M0 21.41 C0 7.14, 7.14 0, 21.41 0" stroke="#000000" stroke-width="1" fill="none"></path></g><g stroke-opacity="0.8" fill-opacity="0.8" transform="translate(349.2204507890681 136.75448608398438) rotate(0 34.5 20)"><text x="34.5" y="14" font-family="Virgil, Segoe UI Emoji" font-size="16px" fill="#000000" text-anchor="middle" style="white-space: pre;" direction="ltr">API </text><text x="34.5" y="34" font-family="Virgil, Segoe UI Emoji" font-size="16px" fill="#000000" text-anchor="middle" style="white-space: pre;" direction="ltr">Gateway</text></g><g stroke-linecap="round"><g stroke-opacity="0.8" fill-opacity="0.8" transform="translate(81.77451261695899 155.5142668524457) rotate(0 128.35884097326158 0.8105990454467644)"><path d="M0 0 C42.79 0.27, 213.93 1.35, 256.72 1.62 M0 0 C42.79 0.27, 213.93 1.35, 256.72 1.62" stroke="#000000" stroke-width="1" fill="none"></path></g><g stroke-opacity="0.8" fill-opacity="0.8" transform="translate(81.77451261695899 155.5142668524457) rotate(0 128.35884097326158 0.8105990454467644)"><path d="M228.46 11.7 C237.81 8.37, 247.16 5.03, 256.72 1.62 M228.46 11.7 C239.74 7.68, 251.01 3.66, 256.72 1.62" stroke="#000000" stroke-width="1" fill="none"></path></g><g stroke-opacity="0.8" fill-opacity="0.8" transform="translate(81.77451261695899 155.5142668524457) rotate(0 128.35884097326158 0.8105990454467644)"><path d="M228.59 -8.82 C237.9 -5.36, 247.2 -1.91, 256.72 1.62 M228.59 -8.82 C239.81 -4.65, 251.04 -0.49, 256.72 1.62" stroke="#000000" stroke-width="1" fill="none"></path></g></g><g stroke-opacity="0.8" fill-opacity="0.8" stroke-linecap="round" transform="translate(489.09452000293527 31.2008056640625) rotate(0 75.03378295898438 53.173500061035156)"><path d="M26.59 0 L123.48 0 L135.11 1.66 L139.68 3.74 L143.42 6.65 L146.33 10.39 L148.41 14.96 L150.07 26.59 L149.65 85.99 L148.41 91.39 L146.33 95.96 L143.42 99.7 L139.68 102.61 L135.11 104.69 L123.48 106.35 L26.59 106.35 L14.96 104.69 L10.39 102.61 L6.65 99.7 L3.74 95.96 L1.66 91.39 L0.42 85.99 L0.42 20.36 L1.66 14.96 L3.74 10.39 L6.65 6.65 L10.39 3.74 L14.96 1.66 L26.59 0" stroke="none" stroke-width="0" fill="#82c91e"></path><path d="M26.59 0 M26.59 0 C60.31 0, 94.04 0, 123.48 0 M26.59 0 C63.88 0, 101.17 0, 123.48 0 M123.48 0 C141.21 0, 150.07 8.86, 150.07 26.59 M123.48 0 C141.21 0, 150.07 8.86, 150.07 26.59 M150.07 26.59 C150.07 42.9, 150.07 59.22, 150.07 79.76 M150.07 26.59 C150.07 43.65, 150.07 60.72, 150.07 79.76 M150.07 79.76 C150.07 97.48, 141.21 106.35, 123.48 106.35 M150.07 79.76 C150.07 97.48, 141.21 106.35, 123.48 106.35 M123.48 106.35 C102.95 106.35, 82.43 106.35, 26.59 106.35 M123.48 106.35 C88.3 106.35, 53.11 106.35, 26.59 106.35 M26.59 106.35 C8.86 106.35, 0 97.48, 0 79.76 M26.59 106.35 C8.86 106.35, 0 97.48, 0 79.76 M0 79.76 C0 58.99, 0 38.22, 0 26.59 M0 79.76 C0 64.17, 0 48.59, 0 26.59 M0 26.59 C0 8.86, 8.86 0, 26.59 0 M0 26.59 C0 8.86, 8.86 0, 26.59 0" stroke="#000000" stroke-width="1" fill="none"></path></g><g stroke-opacity="0.8" fill-opacity="0.8" transform="translate(522.012671858404 68.31599426269531) rotate(0 46.5 10)"><text x="0" y="14" font-family="Virgil, Segoe UI Emoji" font-size="16px" fill="#000000" text-anchor="start" style="white-space: pre;" direction="ltr">APP Router</text></g><g stroke-linecap="round"><g transform="translate(394.05387058887277 98.61274719238281) rotate(0 47.731109619140625 -15.960235229492184)"><path d="M0 0 C5.15 -4.99, 14.99 -25.05, 30.9 -29.91 C46.81 -34.78, 84.7 -29.29, 95.46 -29.17 M0 0 C5.15 -4.99, 14.99 -25.05, 30.9 -29.91 C46.81 -34.78, 84.7 -29.29, 95.46 -29.17" stroke="#000000" stroke-width="1" fill="none"></path></g><g transform="translate(394.05387058887277 98.61274719238281) rotate(0 47.731109619140625 -15.960235229492184)"><path d="M66.6 -20.97 C77.12 -23.96, 87.64 -26.94, 95.46 -29.17 M66.6 -20.97 C74.58 -23.23, 82.55 -25.5, 95.46 -29.17" stroke="#000000" stroke-width="1" fill="none"></path></g><g transform="translate(394.05387058887277 98.61274719238281) rotate(0 47.731109619140625 -15.960235229492184)"><path d="M68.09 -41.44 C78.06 -36.96, 88.04 -32.49, 95.46 -29.17 M68.09 -41.44 C75.65 -38.05, 83.21 -34.66, 95.46 -29.17" stroke="#000000" stroke-width="1" fill="none"></path></g></g><g stroke-linecap="round" transform="translate(904.3794931474665 39.72959899902344) rotate(0 59.1187744140625 39.83837890625)"><path d="M19.92 0 M19.92 0 C43.6 0, 67.28 0, 98.32 0 M19.92 0 C36.13 0, 52.35 0, 98.32 0 M98.32 0 C111.6 0, 118.24 6.64, 118.24 19.92 M98.32 0 C111.6 0, 118.24 6.64, 118.24 19.92 M118.24 19.92 C118.24 29.67, 118.24 39.42, 118.24 59.76 M118.24 19.92 C118.24 32.81, 118.24 45.7, 118.24 59.76 M118.24 59.76 C118.24 73.04, 111.6 79.68, 98.32 79.68 M118.24 59.76 C118.24 73.04, 111.6 79.68, 98.32 79.68 M98.32 79.68 C75.66 79.68, 53 79.68, 19.92 79.68 M98.32 79.68 C74.54 79.68, 50.76 79.68, 19.92 79.68 M19.92 79.68 C6.64 79.68, 0 73.04, 0 59.76 M19.92 79.68 C6.64 79.68, 0 73.04, 0 59.76 M0 59.76 C0 50.29, 0 40.82, 0 19.92 M0 59.76 C0 49.68, 0 39.6, 0 19.92 M0 19.92 C0 6.64, 6.64 0, 19.92 0 M0 19.92 C0 6.64, 6.64 0, 19.92 0" stroke="#000000" stroke-width="1" fill="none"></path></g><g transform="translate(934.768287092779 68.37971496582031) rotate(0 26 10)"><text x="0" y="14" font-family="Virgil, Segoe UI Emoji" font-size="16px" fill="#000000" text-anchor="start" style="white-space: pre;" direction="ltr">XSUAA</text></g><g stroke-linecap="round"><g transform="translate(644.7080453935603 74.94209289550781) rotate(0 125.30166625976562 0.524017333984375)"><path d="M0 0 C41.77 0.17, 208.84 0.87, 250.6 1.05 M0 0 C41.77 0.17, 208.84 0.87, 250.6 1.05" stroke="#000000" stroke-width="1" fill="none"></path></g><g transform="translate(644.7080453935603 74.94209289550781) rotate(0 125.30166625976562 0.524017333984375)"><path d="M222.37 11.19 C232.72 7.47, 243.07 3.76, 250.6 1.05 M222.37 11.19 C228.36 9.04, 234.36 6.88, 250.6 1.05" stroke="#000000" stroke-width="1" fill="none"></path></g><g transform="translate(644.7080453935603 74.94209289550781) rotate(0 125.30166625976562 0.524017333984375)"><path d="M222.46 -9.33 C232.77 -5.53, 243.09 -1.72, 250.6 1.05 M222.46 -9.33 C228.43 -7.13, 234.41 -4.92, 250.6 1.05" stroke="#000000" stroke-width="1" fill="none"></path></g></g><g stroke-linecap="round" transform="translate(587.3484262529353 230.8227081298828) rotate(0 62.28680419921875 31.59600830078125)"><path d="M15.8 0 M15.8 0 C48.31 0, 80.82 0, 108.78 0 M15.8 0 C35.15 0, 54.5 0, 108.78 0 M108.78 0 C119.31 0, 124.57 5.27, 124.57 15.8 M108.78 0 C119.31 0, 124.57 5.27, 124.57 15.8 M124.57 15.8 C124.57 23.31, 124.57 30.82, 124.57 47.39 M124.57 15.8 C124.57 22.59, 124.57 29.38, 124.57 47.39 M124.57 47.39 C124.57 57.93, 119.31 63.19, 108.78 63.19 M124.57 47.39 C124.57 57.93, 119.31 63.19, 108.78 63.19 M108.78 63.19 C80.26 63.19, 51.75 63.19, 15.8 63.19 M108.78 63.19 C78.02 63.19, 47.26 63.19, 15.8 63.19 M15.8 63.19 C5.27 63.19, 0 57.93, 0 47.39 M15.8 63.19 C5.27 63.19, 0 57.93, 0 47.39 M0 47.39 C0 40.85, 0 34.31, 0 15.8 M0 47.39 C0 36.46, 0 25.53, 0 15.8 M0 15.8 C0 5.27, 5.27 0, 15.8 0 M0 15.8 C0 5.27, 5.27 0, 15.8 0" stroke="#000000" stroke-width="1" fill="none"></path></g><g transform="translate(607.0669321123103 241.6952667236328) rotate(0 46 20)"><text x="0" y="14" font-family="Virgil, Segoe UI Emoji" font-size="16px" fill="#000000" text-anchor="start" style="white-space: pre;" direction="ltr">Connectivity</text><text x="0" y="34" font-family="Virgil, Segoe UI Emoji" font-size="16px" fill="#000000" text-anchor="start" style="white-space: pre;" direction="ltr">Proxy</text></g><g stroke-linecap="round" transform="translate(589.0857919755915 505.16978454589844) rotate(0 63.914764404296875 35.637786865234375)"><path d="M17.82 0 M17.82 0 C52.52 0, 87.22 0, 110.01 0 M17.82 0 C50.26 0, 82.7 0, 110.01 0 M110.01 0 C121.89 0, 127.83 5.94, 127.83 17.82 M110.01 0 C121.89 0, 127.83 5.94, 127.83 17.82 M127.83 17.82 C127.83 26.74, 127.83 35.66, 127.83 53.46 M127.83 17.82 C127.83 27.92, 127.83 38.03, 127.83 53.46 M127.83 53.46 C127.83 65.34, 121.89 71.28, 110.01 71.28 M127.83 53.46 C127.83 65.34, 121.89 71.28, 110.01 71.28 M110.01 71.28 C82.57 71.28, 55.12 71.28, 17.82 71.28 M110.01 71.28 C77.7 71.28, 45.38 71.28, 17.82 71.28 M17.82 71.28 C5.94 71.28, 0 65.34, 0 53.46 M17.82 71.28 C5.94 71.28, 0 65.34, 0 53.46 M0 53.46 C0 39.86, 0 26.26, 0 17.82 M0 53.46 C0 41.68, 0 29.91, 0 17.82 M0 17.82 C0 5.94, 5.94 0, 17.82 0 M0 17.82 C0 5.94, 5.94 0, 17.82 0" stroke="#000000" stroke-width="1" fill="none"></path></g><g transform="translate(611.816138655279 519.7228851318359) rotate(0 38 20)"><text x="38" y="14" font-family="Virgil, Segoe UI Emoji" font-size="16px" fill="#000000" text-anchor="middle" style="white-space: pre;" direction="ltr">Cloud </text><text x="38" y="34" font-family="Virgil, Segoe UI Emoji" font-size="16px" fill="#000000" text-anchor="middle" style="white-space: pre;" direction="ltr">Connector</text></g><g stroke-linecap="round"><g transform="translate(638.2701791826228 108.65379333496094) rotate(0 31.54543891546922 60.40053462982178)"><path d="M0 0 C9.9 0.94, 50.41 -3.81, 59.39 5.66 C68.37 15.12, 58.8 37.53, 53.9 56.79 C49 76.04, 33.98 110.44, 29.99 121.17 M0 0 C9.9 0.94, 50.41 -3.81, 59.39 5.66 C68.37 15.12, 58.8 37.53, 53.9 56.79 C49 76.04, 33.98 110.44, 29.99 121.17" stroke="#000000" stroke-width="1" fill="none"></path></g><g transform="translate(638.2701791826228 108.65379333496094) rotate(0 31.54543891546922 60.40053462982178)"><path d="M30.93 91.18 C30.6 101.61, 30.28 112.04, 29.99 121.17 M30.93 91.18 C30.71 98.06, 30.5 104.93, 29.99 121.17" stroke="#000000" stroke-width="1" fill="none"></path></g><g transform="translate(638.2701791826228 108.65379333496094) rotate(0 31.54543891546922 60.40053462982178)"><path d="M49.98 98.8 C43.03 106.58, 36.08 114.36, 29.99 121.17 M49.98 98.8 C45.4 103.93, 40.82 109.05, 29.99 121.17" stroke="#000000" stroke-width="1" fill="none"></path></g></g><g transform="translate(97.3545602861384 131.40858459472656) rotate(0 97.5 10)"><text x="0" y="14" font-family="Virgil, Segoe UI Emoji" font-size="16px" fill="#000000" text-anchor="start" style="white-space: pre;" direction="ltr">/sap/com/onprem/mysales</text></g><g transform="translate(707.4023813310603 51.194305419921875) rotate(0 62 10)"><text x="0" y="14" font-family="Virgil, Segoe UI Emoji" font-size="16px" fill="#000000" text-anchor="start" style="white-space: pre;" direction="ltr">Token Exchange</text></g><g transform="translate(163.85575047168527 161.72251892089844) rotate(0 4.5 10)"><text x="0" y="14" font-family="Virgil, Segoe UI Emoji" font-size="16px" fill="#000000" text-anchor="start" style="white-space: pre;" direction="ltr">1.</text></g><g transform="translate(432.1782907548884 71.41633605957031) rotate(0 8 10)"><text x="8" y="14" font-family="Virgil, Segoe UI Emoji" font-size="16px" fill="#000000" text-anchor="middle" style="white-space: pre;" direction="ltr">2.</text></g><g transform="translate(771.8863290849665 78.25962829589844) rotate(0 7.5 10)"><text x="0" y="14" font-family="Virgil, Segoe UI Emoji" font-size="16px" fill="#000000" text-anchor="start" style="white-space: pre;" direction="ltr">3.</text></g><g transform="translate(671.843726545904 146.9568328857422) rotate(0 7.5 10)"><text x="0" y="14" font-family="Virgil, Segoe UI Emoji" font-size="16px" fill="#000000" text-anchor="start" style="white-space: pre;" direction="ltr">4.</text></g><g stroke-linecap="round"><g transform="translate(647.1383596597686 298.0028877031013) rotate(0 1.1329031942789243 101.79517120042942)"><path d="M0 0 C0.38 33.93, 1.89 169.66, 2.27 203.59 M0 0 C0.38 33.93, 1.89 169.66, 2.27 203.59" stroke="#000000" stroke-width="1" fill="none"></path></g><g transform="translate(647.1383596597686 298.0028877031013) rotate(0 1.1329031942789243 101.79517120042942)"><path d="M-8.31 175.52 C-5.13 183.95, -1.95 192.39, 2.27 203.59 M-8.31 175.52 C-6.18 181.15, -4.06 186.79, 2.27 203.59" stroke="#000000" stroke-width="1" fill="none"></path></g><g transform="translate(647.1383596597686 298.0028877031013) rotate(0 1.1329031942789243 101.79517120042942)"><path d="M12.21 175.29 C9.22 183.79, 6.24 192.29, 2.27 203.59 M12.21 175.29 C10.21 180.97, 8.22 186.66, 2.27 203.59" stroke="#000000" stroke-width="1" fill="none"></path></g></g><g transform="translate(650.4841684404353 362.53346252441406) rotate(0 90 10)"><text x="0" y="14" font-family="Virgil, Segoe UI Emoji" font-size="16px" fill="#000000" text-anchor="start" style="white-space: pre;" direction="ltr">call over Secure Tinnel</text></g><g transform="translate(626.8557504716853 363.72251892089844) rotate(0 7 10)"><text x="0" y="14" font-family="Virgil, Segoe UI Emoji" font-size="16px" fill="#000000" text-anchor="start" style="white-space: pre;" direction="ltr">5.</text></g><g stroke-linecap="round" transform="translate(592.8581918779353 741.2476043701172) rotate(0 70.78347778320312 28.997238159179688)"><path d="M14.5 0 M14.5 0 C42.34 0, 70.18 0, 127.07 0 M14.5 0 C53.95 0, 93.4 0, 127.07 0 M127.07 0 C136.73 0, 141.57 4.83, 141.57 14.5 M127.07 0 C136.73 0, 141.57 4.83, 141.57 14.5 M141.57 14.5 C141.57 24.37, 141.57 34.24, 141.57 43.5 M141.57 14.5 C141.57 20.54, 141.57 26.59, 141.57 43.5 M141.57 43.5 C141.57 53.16, 136.73 57.99, 127.07 57.99 M141.57 43.5 C141.57 53.16, 136.73 57.99, 127.07 57.99 M127.07 57.99 C96.89 57.99, 66.7 57.99, 14.5 57.99 M127.07 57.99 C102.49 57.99, 77.9 57.99, 14.5 57.99 M14.5 57.99 C4.83 57.99, 0 53.16, 0 43.5 M14.5 57.99 C4.83 57.99, 0 53.16, 0 43.5 M0 43.5 C0 37.28, 0 31.06, 0 14.5 M0 43.5 C0 37.53, 0 31.56, 0 14.5 M0 14.5 C0 4.83, 4.83 0, 14.5 0 M0 14.5 C0 4.83, 4.83 0, 14.5 0" stroke="#000000" stroke-width="1" fill="none"></path></g><g transform="translate(637.088355452154 748.9193878173828) rotate(0 30 20)"><text x="0" y="14" font-family="Virgil, Segoe UI Emoji" font-size="16px" fill="#000000" text-anchor="start" style="white-space: pre;" direction="ltr">backend</text><text x="0" y="34" font-family="Virgil, Segoe UI Emoji" font-size="16px" fill="#000000" text-anchor="start" style="white-space: pre;" direction="ltr">App</text></g><g stroke-linecap="round"><g transform="translate(653.1094507376292 585.4528045654297) rotate(0 6.543687360780837 73.66728210449219)"><path d="M0 0 C2.18 24.56, 10.91 122.78, 13.09 147.33 M0 0 C2.18 24.56, 10.91 122.78, 13.09 147.33" stroke="#000000" stroke-width="1" fill="none"></path></g><g transform="translate(653.1094507376292 585.4528045654297) rotate(0 6.543687360780837 73.66728210449219)"><path d="M0.37 120.16 C3.87 127.64, 7.37 135.11, 13.09 147.33 M0.37 120.16 C3.82 127.54, 7.27 134.91, 13.09 147.33" stroke="#000000" stroke-width="1" fill="none"></path></g><g transform="translate(653.1094507376292 585.4528045654297) rotate(0 6.543687360780837 73.66728210449219)"><path d="M20.81 118.35 C18.69 126.32, 16.56 134.29, 13.09 147.33 M20.81 118.35 C18.72 126.21, 16.62 134.08, 13.09 147.33" stroke="#000000" stroke-width="1" fill="none"></path></g></g><g transform="translate(632.8557504716853 629.7225189208984) rotate(0 7.5 10)"><text x="0" y="14" font-family="Virgil, Segoe UI Emoji" font-size="16px" fill="#000000" text-anchor="start" style="white-space: pre;" direction="ltr">6.</text></g><g transform="translate(679.8557504716853 595.7225189208984) rotate(0 118 50)"><text x="0" y="14" font-family="Virgil, Segoe UI Emoji" font-size="16px" fill="#000000" text-anchor="start" style="white-space: pre;" direction="ltr">HTTPS (System Certificate)</text><text x="0" y="34" font-family="Virgil, Segoe UI Emoji" font-size="16px" fill="#000000" text-anchor="start" style="white-space: pre;" direction="ltr"></text><text x="0" y="54" font-family="Virgil, Segoe UI Emoji" font-size="16px" fill="#000000" text-anchor="start" style="white-space: pre;" direction="ltr">Header: SSL_CLIENT_CERT </text><text x="0" y="74" font-family="Virgil, Segoe UI Emoji" font-size="16px" fill="#000000" text-anchor="start" style="white-space: pre;" direction="ltr">(Short-lived user Token)</text><text x="0" y="94" font-family="Virgil, Segoe UI Emoji" font-size="16px" fill="#000000" text-anchor="start" style="white-space: pre;" direction="ltr"></text></g><g stroke-linecap="round"><g transform="translate(402.4405376555901 276.9506649819802) rotate(0 0.08788455964497643 20.214959008069627)" fill-rule="evenodd"><path d="M0 0 L-17.05 8.16 L-20.56 25.59 L-8.79 40.43 L10.99 40.34 L20.74 24.47 L16.87 7.29 L0 0" stroke="none" stroke-width="0" fill="#326ce5" fill-rule="evenodd"></path><path d="M0 0 C-6.15 2.94, -12.3 5.88, -17.05 8.16 M0 0 C-3.65 1.75, -7.31 3.5, -17.05 8.16 M-17.05 8.16 C-17.76 11.69, -18.47 15.22, -20.56 25.59 M-17.05 8.16 C-17.99 12.8, -18.92 17.45, -20.56 25.59 M-20.56 25.59 C-17.82 29.05, -15.08 32.5, -8.79 40.43 M-20.56 25.59 C-16.64 30.53, -12.72 35.47, -8.79 40.43 M-8.79 40.43 C-0.93 40.4, 6.93 40.36, 10.99 40.34 M-8.79 40.43 C-4.05 40.41, 0.68 40.39, 10.99 40.34 M10.99 40.34 C14.39 34.8, 17.8 29.25, 20.74 24.47 M10.99 40.34 C12.99 37.08, 14.99 33.82, 20.74 24.47 M20.74 24.47 C19.79 20.23, 18.83 15.99, 16.87 7.29 M20.74 24.47 C19.8 20.28, 18.86 16.1, 16.87 7.29 M16.87 7.29 C10.88 4.7, 4.88 2.11, 0 0 M16.87 7.29 C10.78 4.66, 4.69 2.02, 0 0 M0 0 C0 0, 0 0, 0 0 M0 0 C0 0, 0 0, 0 0" stroke="#000000" stroke-width="1" fill="none"></path></g></g><g stroke-linecap="round"><g transform="translate(399.49253582178574 287.98216361338814) rotate(0.5801223728874558 3.7939554495546304 10.130142969071358)" fill-rule="evenodd"><path d="M0 0 L2.21 -0.71 L2.13 -5.09 L3.6 -5.21 L4.08 -0.75 L9.8 1.01 L12.16 2.64 L15.22 0.76 L15.9 1.38 L13.41 4.02 L15.76 9.95 L15.86 13.06 L19.31 13.95 L19.16 15.06 L15.53 14.75 L12.35 19.58 L9.7 21.69 L11.77 25.07 L10.61 25.7 L8.29 22.2 L5.23 23.03 L1.05 22.95 L-1.58 21.84 L-3.75 25.03 L-4.71 24.37 L-2.93 21.03 L-4.99 19.45 L-7.7 15.06 L-11.56 15.7 L-11.73 14.51 L-8.16 13.47 L-8.15 9.78 L-6.08 4.57 L-9.39 2.23 L-8.71 1.1 L-6.32 3.02 L-5.06 3.13 L0 0" stroke="none" stroke-width="0" fill="#ffff" fill-rule="evenodd"></path><path d="M0 0 C0.37 -0.12, 1.81 -0.4, 2.21 -0.71 C2.62 -1.02, 2.43 -1.12, 2.42 -1.85 C2.4 -2.58, 1.93 -4.53, 2.13 -5.09 C2.32 -5.65, 3.36 -5.75, 3.6 -5.21 C3.83 -4.66, 3.45 -2.55, 3.53 -1.81 C3.61 -1.06, 3.59 -1.01, 4.08 -0.75 C4.57 -0.5, 5.52 -0.55, 6.47 -0.26 C7.42 0.03, 8.85 0.52, 9.8 1.01 C10.75 1.49, 11.62 2.41, 12.16 2.64 C12.71 2.88, 12.56 2.76, 13.07 2.44 C13.58 2.13, 14.75 0.94, 15.22 0.76 C15.7 0.58, 16.15 0.99, 15.9 1.38 C15.66 1.77, 14.18 2.66, 13.76 3.1 C13.34 3.54, 13.22 3.41, 13.41 4.02 C13.59 4.64, 14.48 5.8, 14.87 6.78 C15.26 7.77, 15.6 8.9, 15.76 9.95 C15.93 11, 15.73 12.45, 15.86 13.06 C15.99 13.68, 15.97 13.5, 16.54 13.64 C17.12 13.79, 18.87 13.71, 19.31 13.95 C19.75 14.19, 19.64 14.96, 19.16 15.06 C18.67 15.16, 17 14.59, 16.39 14.54 C15.79 14.49, 15.89 14.28, 15.53 14.75 C15.17 15.21, 14.75 16.52, 14.22 17.33 C13.69 18.13, 13.1 18.85, 12.35 19.58 C11.6 20.3, 10.09 21.19, 9.7 21.69 C9.32 22.19, 9.69 22.03, 10.04 22.59 C10.38 23.15, 11.67 24.55, 11.77 25.07 C11.86 25.59, 11.01 26.05, 10.61 25.7 C10.21 25.35, 9.75 23.55, 9.36 22.96 C8.97 22.38, 8.98 22.19, 8.29 22.2 C7.6 22.21, 6.43 22.9, 5.23 23.03 C4.02 23.15, 2.19 23.15, 1.05 22.95 C-0.08 22.75, -1.01 21.93, -1.58 21.84 C-2.15 21.75, -1.99 21.89, -2.36 22.43 C-2.72 22.96, -3.36 24.7, -3.75 25.03 C-4.15 25.35, -4.83 24.89, -4.71 24.37 C-4.6 23.86, -3.36 22.51, -3.07 21.95 C-2.77 21.4, -2.61 21.45, -2.93 21.03 C-3.25 20.61, -4.33 20.15, -4.99 19.45 C-5.64 18.76, -6.42 17.58, -6.87 16.85 C-7.33 16.12, -7.38 15.37, -7.7 15.06 C-8.02 14.74, -8.14 14.84, -8.78 14.94 C-9.43 15.05, -11.07 15.78, -11.56 15.7 C-12.05 15.63, -12.16 14.77, -11.73 14.51 C-11.29 14.25, -9.53 14.33, -8.94 14.15 C-8.35 13.98, -8.29 14.2, -8.16 13.47 C-8.03 12.74, -8.27 10.87, -8.15 9.78 C-8.02 8.7, -7.76 7.83, -7.42 6.96 C-7.08 6.09, -6.2 5.12, -6.08 4.57 C-5.97 4.02, -6.16 4.04, -6.71 3.65 C-7.26 3.26, -9.06 2.65, -9.39 2.23 C-9.73 1.8, -9.22 0.97, -8.71 1.1 C-8.2 1.23, -6.92 2.68, -6.32 3.02 C-5.71 3.35, -5.63 3.4, -5.06 3.13 C-4.49 2.86, -3.76 1.93, -2.92 1.41 C-2.07 0.89, -0.49 0.23, 0 0 M0 0 C0.37 -0.12, 1.81 -0.4, 2.21 -0.71 C2.62 -1.02, 2.43 -1.12, 2.42 -1.85 C2.4 -2.58, 1.93 -4.53, 2.13 -5.09 C2.32 -5.65, 3.36 -5.75, 3.6 -5.21 C3.83 -4.66, 3.45 -2.55, 3.53 -1.81 C3.61 -1.06, 3.59 -1.01, 4.08 -0.75 C4.57 -0.5, 5.52 -0.55, 6.47 -0.26 C7.42 0.03, 8.85 0.52, 9.8 1.01 C10.75 1.49, 11.62 2.41, 12.16 2.64 C12.71 2.88, 12.56 2.76, 13.07 2.44 C13.58 2.13, 14.75 0.94, 15.22 0.76 C15.7 0.58, 16.15 0.99, 15.9 1.38 C15.66 1.77, 14.18 2.66, 13.76 3.1 C13.34 3.54, 13.22 3.41, 13.41 4.02 C13.59 4.64, 14.48 5.8, 14.87 6.78 C15.26 7.77, 15.6 8.9, 15.76 9.95 C15.93 11, 15.73 12.45, 15.86 13.06 C15.99 13.68, 15.97 13.5, 16.54 13.64 C17.12 13.79, 18.87 13.71, 19.31 13.95 C19.75 14.19, 19.64 14.96, 19.16 15.06 C18.67 15.16, 17 14.59, 16.39 14.54 C15.79 14.49, 15.89 14.28, 15.53 14.75 C15.17 15.21, 14.75 16.52, 14.22 17.33 C13.69 18.13, 13.1 18.85, 12.35 19.58 C11.6 20.3, 10.09 21.19, 9.7 21.69 C9.32 22.19, 9.69 22.03, 10.04 22.59 C10.38 23.15, 11.67 24.55, 11.77 25.07 C11.86 25.59, 11.01 26.05, 10.61 25.7 C10.21 25.35, 9.75 23.55, 9.36 22.96 C8.97 22.38, 8.98 22.19, 8.29 22.2 C7.6 22.21, 6.43 22.9, 5.23 23.03 C4.02 23.15, 2.19 23.15, 1.05 22.95 C-0.08 22.75, -1.01 21.93, -1.58 21.84 C-2.15 21.75, -1.99 21.89, -2.36 22.43 C-2.72 22.96, -3.36 24.7, -3.75 25.03 C-4.15 25.35, -4.83 24.89, -4.71 24.37 C-4.6 23.86, -3.36 22.51, -3.07 21.95 C-2.77 21.4, -2.61 21.45, -2.93 21.03 C-3.25 20.61, -4.33 20.15, -4.99 19.45 C-5.64 18.76, -6.42 17.58, -6.87 16.85 C-7.33 16.12, -7.38 15.37, -7.7 15.06 C-8.02 14.74, -8.14 14.84, -8.78 14.94 C-9.43 15.05, -11.07 15.78, -11.56 15.7 C-12.05 15.63, -12.16 14.77, -11.73 14.51 C-11.29 14.25, -9.53 14.33, -8.94 14.15 C-8.35 13.98, -8.29 14.2, -8.16 13.47 C-8.03 12.74, -8.27 10.87, -8.15 9.78 C-8.02 8.7, -7.76 7.83, -7.42 6.96 C-7.08 6.09, -6.2 5.12, -6.08 4.57 C-5.97 4.02, -6.16 4.04, -6.71 3.65 C-7.26 3.26, -9.06 2.65, -9.39 2.23 C-9.73 1.8, -9.22 0.97, -8.71 1.1 C-8.2 1.23, -6.92 2.68, -6.32 3.02 C-5.71 3.35, -5.63 3.4, -5.06 3.13 C-4.49 2.86, -3.76 1.93, -2.92 1.41 C-2.07 0.89, -0.49 0.23, 0 0" stroke="#000000" stroke-width="1" fill="none"></path></g></g><g stroke-linecap="round"><g transform="translate(396.44460033947473 291.7103250433889) rotate(0 3.179438817673258 0.009383641780488006)" fill-rule="evenodd"><path d="M0 0 L3.81 -2.88 L6.07 -3.05 L5.89 3.25 L0 0" stroke="none" stroke-width="0" fill="#326ce5" fill-rule="evenodd"></path><path d="M0 0 C0.31 -0.28, 1.24 -1.22, 1.88 -1.7 C2.51 -2.18, 3.11 -2.66, 3.81 -2.88 C4.51 -3.11, 5.66 -3.55, 6.07 -3.05 C6.49 -2.56, 6.34 -0.96, 6.31 0.09 C6.28 1.14, 6.47 2.97, 5.89 3.25 C5.31 3.54, 3.83 2.33, 2.84 1.79 C1.86 1.25, 0.47 0.3, 0 0 M0 0 C0.31 -0.28, 1.24 -1.22, 1.88 -1.7 C2.51 -2.18, 3.11 -2.66, 3.81 -2.88 C4.51 -3.11, 5.66 -3.55, 6.07 -3.05 C6.49 -2.56, 6.34 -0.96, 6.31 0.09 C6.28 1.14, 6.47 2.97, 5.89 3.25 C5.31 3.54, 3.83 2.33, 2.84 1.79 C1.86 1.25, 0.47 0.3, 0 0" stroke="#000000" stroke-width="1" fill="none"></path></g></g><g stroke-linecap="round"><g transform="translate(403.1909966306963 291.3308328090567) rotate(56.61573969620872 3.2553642539748466 0.03967198148438911)" fill-rule="evenodd"><path d="M0 0 L3.75 -2.83 L5.73 -3.16 L6.13 3.37 L0 0" stroke="none" stroke-width="0" fill="#326ce5" fill-rule="evenodd"></path><path d="M0 0 C0.31 -0.28, 1.22 -1.2, 1.85 -1.67 C2.47 -2.14, 3.1 -2.58, 3.75 -2.83 C4.39 -3.08, 5.29 -3.61, 5.73 -3.16 C6.17 -2.71, 6.33 -1.21, 6.39 -0.12 C6.46 0.96, 6.73 3.05, 6.13 3.37 C5.53 3.68, 3.82 2.32, 2.8 1.76 C1.77 1.2, 0.47 0.29, 0 0 M0 0 C0.31 -0.28, 1.22 -1.2, 1.85 -1.67 C2.47 -2.14, 3.1 -2.58, 3.75 -2.83 C4.39 -3.08, 5.29 -3.61, 5.73 -3.16 C6.17 -2.71, 6.33 -1.21, 6.39 -0.12 C6.46 0.96, 6.73 3.05, 6.13 3.37 C5.53 3.68, 3.82 2.32, 2.8 1.76 C1.77 1.2, 0.47 0.29, 0 0" stroke="#000000" stroke-width="1" fill="none"></path></g></g><g stroke-linecap="round"><g transform="translate(407.85976010544755 296.1425867060042) rotate(107.76551663161719 3.175993446048892 0.16938708502141253)" fill-rule="evenodd"><path d="M0 0 L3.75 -2.86 L6.05 -3.04 L5.67 3.55 L0 0" stroke="none" stroke-width="0" fill="#326ce5" fill-rule="evenodd"></path><path d="M0 0 C0.31 -0.28, 1.25 -1.22, 1.87 -1.69 C2.5 -2.17, 3.06 -2.63, 3.75 -2.86 C4.45 -3.08, 5.63 -3.53, 6.05 -3.04 C6.47 -2.55, 6.35 -1.01, 6.29 0.09 C6.22 1.19, 6.25 3.23, 5.67 3.55 C5.09 3.87, 3.75 2.58, 2.8 1.99 C1.86 1.4, 0.47 0.33, 0 0 M0 0 C0.31 -0.28, 1.25 -1.22, 1.87 -1.69 C2.5 -2.17, 3.06 -2.63, 3.75 -2.86 C4.45 -3.08, 5.63 -3.53, 6.05 -3.04 C6.47 -2.55, 6.35 -1.01, 6.29 0.09 C6.22 1.19, 6.25 3.23, 5.67 3.55 C5.09 3.87, 3.75 2.58, 2.8 1.99 C1.86 1.4, 0.47 0.33, 0 0" stroke="#000000" stroke-width="1" fill="none"></path></g></g><g stroke-linecap="round"><g transform="translate(406.89726064309525 303.13683943548364) rotate(163.11582915884097 3.0470428098946627 0.21704450893358285)" fill-rule="evenodd"><path d="M0 0 L3.25 -2.81 L5.44 -3.13 L5.72 3.71 L0 0" stroke="none" stroke-width="0" fill="#326ce5" fill-rule="evenodd"></path><path d="M0 0 C0.19 -0.22, 0.63 -0.85, 1.17 -1.32 C1.71 -1.79, 2.54 -2.51, 3.25 -2.81 C3.96 -3.12, 4.98 -3.63, 5.44 -3.13 C5.9 -2.64, 5.97 -0.99, 6.02 0.15 C6.07 1.29, 6.27 3.37, 5.72 3.71 C5.17 4.06, 3.69 2.83, 2.73 2.21 C1.78 1.59, 0.46 0.37, 0 0 M0 0 C0.19 -0.22, 0.63 -0.85, 1.17 -1.32 C1.71 -1.79, 2.54 -2.51, 3.25 -2.81 C3.96 -3.12, 4.98 -3.63, 5.44 -3.13 C5.9 -2.64, 5.97 -0.99, 6.02 0.15 C6.07 1.29, 6.27 3.37, 5.72 3.71 C5.17 4.06, 3.69 2.83, 2.73 2.21 C1.78 1.59, 0.46 0.37, 0 0" stroke="#000000" stroke-width="1" fill="none"></path></g></g><g stroke-linecap="round"><g transform="translate(400.54676787354003 306.31193538153343) rotate(216.28421746585929 3.1798726842428096 -0.04091034551711914)" fill-rule="evenodd"><path d="M0 0 L3.5 -2.97 L5.6 -3.52 L6.16 3.56 L0 0" stroke="none" stroke-width="0" fill="#326ce5" fill-rule="evenodd"></path><path d="M0 0 C0.26 -0.25, 0.98 -1.03, 1.56 -1.53 C2.14 -2.02, 2.82 -2.63, 3.5 -2.97 C4.17 -3.3, 5.19 -4.02, 5.6 -3.52 C6.02 -3.03, 5.89 -1.18, 5.99 0 C6.08 1.18, 6.65 3.24, 6.16 3.56 C5.67 3.88, 4.07 2.5, 3.04 1.91 C2.02 1.32, 0.51 0.32, 0 0 M0 0 C0.26 -0.25, 0.98 -1.03, 1.56 -1.53 C2.14 -2.02, 2.82 -2.63, 3.5 -2.97 C4.17 -3.3, 5.19 -4.02, 5.6 -3.52 C6.02 -3.03, 5.89 -1.18, 5.99 0 C6.08 1.18, 6.65 3.24, 6.16 3.56 C5.67 3.88, 4.07 2.5, 3.04 1.91 C2.02 1.32, 0.51 0.32, 0 0" stroke="#000000" stroke-width="1" fill="none"></path></g></g><g stroke-linecap="round"><g transform="translate(394.62929667389085 304.1753684170952) rotate(272.70762780618236 3.1749049480740723 -0.3199162166903591)" fill-rule="evenodd"><path d="M0 0 L3.13 -3.16 L4.82 -3.27 L5.98 -0.46 L6.1 2.73 L2.8 1.99 L0 0" stroke="none" stroke-width="0" fill="#326ce5" fill-rule="evenodd"></path><path d="M0 0 C0.2 -0.29, 0.69 -1.18, 1.21 -1.71 C1.74 -2.24, 2.53 -2.9, 3.13 -3.16 C3.73 -3.41, 4.34 -3.72, 4.82 -3.27 C5.29 -2.82, 5.76 -1.46, 5.98 -0.46 C6.19 0.54, 6.63 2.33, 6.1 2.73 C5.57 3.14, 3.82 2.44, 2.8 1.99 C1.79 1.53, 0.47 0.33, 0 0 M0 0 C0.2 -0.29, 0.69 -1.18, 1.21 -1.71 C1.74 -2.24, 2.53 -2.9, 3.13 -3.16 C3.73 -3.41, 4.34 -3.72, 4.82 -3.27 C5.29 -2.82, 5.76 -1.46, 5.98 -0.46 C6.19 0.54, 6.63 2.33, 6.1 2.73 C5.57 3.14, 3.82 2.44, 2.8 1.99 C1.79 1.53, 0.47 0.33, 0 0" stroke="#000000" stroke-width="1" fill="none"></path></g></g><g stroke-linecap="round"><g transform="translate(392.807031145113 297.68204232878014) rotate(323.4456150347969 3.492695287948777 -0.29304619398232035)" fill-rule="evenodd"><path d="M0 0 L3.13 -3.16 L5.04 -3.57 L6.85 3.06 L0 0" stroke="none" stroke-width="0" fill="#326ce5" fill-rule="evenodd"></path><path d="M0 0 C0.2 -0.29, 0.69 -1.18, 1.21 -1.71 C1.74 -2.24, 2.49 -2.85, 3.13 -3.16 C3.77 -3.47, 4.54 -4, 5.04 -3.57 C5.54 -3.14, 5.83 -1.69, 6.13 -0.58 C6.43 0.52, 7.32 2.65, 6.85 3.06 C6.39 3.47, 4.5 2.38, 3.35 1.87 C2.21 1.36, 0.56 0.31, 0 0 M0 0 C0.2 -0.29, 0.69 -1.18, 1.21 -1.71 C1.74 -2.24, 2.49 -2.85, 3.13 -3.16 C3.77 -3.47, 4.54 -4, 5.04 -3.57 C5.54 -3.14, 5.83 -1.69, 6.13 -0.58 C6.43 0.52, 7.32 2.65, 6.85 3.06 C6.39 3.47, 4.5 2.38, 3.35 1.87 C2.21 1.36, 0.56 0.31, 0 0" stroke="#000000" stroke-width="1" fill="none"></path></g></g><g stroke-linecap="round" transform="translate(403.09890217524026 297.6665770367152) rotate(0 1.3801726822733826 1.3801726822733826)"><path d="M1.38 0 C1.66 -0.02, 2.04 0.13, 2.27 0.32 C2.49 0.51, 2.69 0.85, 2.74 1.14 C2.79 1.43, 2.72 1.81, 2.58 2.07 C2.43 2.33, 2.13 2.58, 1.85 2.68 C1.57 2.78, 1.19 2.78, 0.91 2.68 C0.63 2.58, 0.33 2.33, 0.18 2.07 C0.04 1.81, -0.03 1.43, 0.02 1.14 C0.07 0.85, 0.27 0.51, 0.49 0.32 C0.72 0.13, 1.23 0.05, 1.38 0 C1.53 -0.05, 1.38 0, 1.38 0.03 M1.38 0 C1.66 -0.02, 2.04 0.13, 2.27 0.32 C2.49 0.51, 2.69 0.85, 2.74 1.14 C2.79 1.43, 2.72 1.81, 2.58 2.07 C2.43 2.33, 2.13 2.58, 1.85 2.68 C1.57 2.78, 1.19 2.78, 0.91 2.68 C0.63 2.58, 0.33 2.33, 0.18 2.07 C0.04 1.81, -0.03 1.43, 0.02 1.14 C0.07 0.85, 0.27 0.51, 0.49 0.32 C0.72 0.13, 1.23 0.05, 1.38 0 C1.53 -0.05, 1.38 0, 1.38 0.03" stroke="none" stroke-width="0" fill="#326ce5"></path><path d="M1.38 0 C1.66 -0.02, 2.04 0.13, 2.27 0.32 C2.49 0.51, 2.69 0.85, 2.74 1.14 C2.79 1.43, 2.72 1.81, 2.58 2.07 C2.43 2.33, 2.13 2.58, 1.85 2.68 C1.57 2.78, 1.19 2.78, 0.91 2.68 C0.63 2.58, 0.33 2.33, 0.18 2.07 C0.04 1.81, -0.03 1.43, 0.02 1.14 C0.07 0.85, 0.27 0.51, 0.49 0.32 C0.72 0.13, 1.23 0.05, 1.38 0 C1.53 -0.05, 1.38 0, 1.38 0.03 M1.38 0 C1.66 -0.02, 2.04 0.13, 2.27 0.32 C2.49 0.51, 2.69 0.85, 2.74 1.14 C2.79 1.43, 2.72 1.81, 2.58 2.07 C2.43 2.33, 2.13 2.58, 1.85 2.68 C1.57 2.78, 1.19 2.78, 0.91 2.68 C0.63 2.58, 0.33 2.33, 0.18 2.07 C0.04 1.81, -0.03 1.43, 0.02 1.14 C0.07 0.85, 0.27 0.51, 0.49 0.32 C0.72 0.13, 1.23 0.05, 1.38 0 C1.53 -0.05, 1.38 0, 1.38 0.03" stroke="#000000" stroke-width="1" fill="none"></path></g><g stroke-linecap="round" transform="translate(433.9683603349665 463.4983673095703) rotate(0 238.423828125 171.9889678955078)"><path d="M85.99 0 M85.99 0 C165.79 0, 245.6 0, 390.85 0 M85.99 0 C194.59 0, 303.19 0, 390.85 0 M390.85 0 C448.18 0, 476.85 28.66, 476.85 85.99 M390.85 0 C448.18 0, 476.85 28.66, 476.85 85.99 M476.85 85.99 C476.85 131.33, 476.85 176.66, 476.85 257.98 M476.85 85.99 C476.85 140.5, 476.85 195, 476.85 257.98 M476.85 257.98 C476.85 315.31, 448.18 343.98, 390.85 343.98 M476.85 257.98 C476.85 315.31, 448.18 343.98, 390.85 343.98 M390.85 343.98 C288.47 343.98, 186.09 343.98, 85.99 343.98 M390.85 343.98 C307.97 343.98, 225.09 343.98, 85.99 343.98 M85.99 343.98 C28.66 343.98, 0 315.31, 0 257.98 M85.99 343.98 C28.66 343.98, 0 315.31, 0 257.98 M0 257.98 C0 209.64, 0 161.29, 0 85.99 M0 257.98 C0 201.58, 0 145.18, 0 85.99 M0 85.99 C0 28.66, 28.66 0, 85.99 0 M0 85.99 C0 28.66, 28.66 0, 85.99 0" stroke="#000000" stroke-width="1" fill="none"></path></g><g transform="translate(465.85575047168527 477.72251892089844) rotate(0 62.5 10)"><text x="0" y="14" font-family="Virgil, Segoe UI Emoji" font-size="16px" fill="#c92a2a" text-anchor="start" style="white-space: pre;" direction="ltr">On Prem System</text></g><g transform="translate(434.83365574512277 305.6934356689453) rotate(0 95.5 10)"><text x="0" y="14" font-family="Virgil, Segoe UI Emoji" font-size="16px" fill="#c92a2a" text-anchor="start" style="white-space: pre;" direction="ltr">SAP BTP, Kyma Runtime</text></g><g transform="translate(662.2886117998103 172.7865447998047) rotate(0 157 10)"><text x="0" y="14" font-family="Virgil, Segoe UI Emoji" font-size="16px" fill="#000000" text-anchor="start" style="white-space: pre;" direction="ltr">Header: SAP-Connectivity-Authentication</text></g></svg>